<svg width="32" height="32" viewBox="0 0 32 32" fill="none" xmlns="http://www.w3.org/2000/svg">
<g clip-path="url(#clip0)">
<path d="M16.0053 7.78404C11.468 7.78404 7.79468 11.4614 7.79468 15.9947C7.79468 20.532 11.472 24.2054 16.0053 24.2054C20.5427 24.2054 24.216 20.528 24.216 15.9947C24.216 11.4574 20.5387 7.78404 16.0053 7.78404ZM16.0053 21.324C13.06 21.324 10.676 18.9387 10.676 15.9947C10.676 13.0507 13.0613 10.6654 16.0053 10.6654C18.9493 10.6654 21.3347 13.0507 21.3347 15.9947C21.336 18.9387 18.9507 21.324 16.0053 21.324Z" fill="white"/>
<path d="M22.5973 0.101233C19.6533 -0.0361006 12.3613 -0.029434 9.41467 0.101233C6.82533 0.222566 4.54133 0.847899 2.7 2.68923C-0.377336 5.76657 0.0159978 9.91323 0.0159978 15.9946C0.0159978 22.2186 -0.330669 26.2692 2.7 29.2999C5.78933 32.3879 9.996 31.9839 16.0053 31.9839C22.1707 31.9839 24.2987 31.9879 26.4787 31.1439C29.4427 29.9932 31.68 27.3439 31.8987 22.5852C32.0373 19.6399 32.0293 12.3492 31.8987 9.40257C31.6347 3.78523 28.62 0.378566 22.5973 0.101233ZM27.2573 27.2639C25.24 29.2812 22.4413 29.1012 15.9667 29.1012C9.3 29.1012 6.62666 29.1999 4.676 27.2439C2.42933 25.0079 2.836 21.4172 2.836 15.9732C2.836 8.60657 2.08 3.30123 9.47333 2.92257C11.172 2.86257 11.672 2.84257 15.948 2.84257L16.008 2.88257C23.1133 2.88257 28.688 2.13857 29.0227 9.53057C29.0987 11.2172 29.116 11.7239 29.116 15.9932C29.1147 22.5826 29.24 25.2719 27.2573 27.2639Z" fill="white"/>
<path d="M24.5413 9.37862C25.601 9.37862 26.46 8.5196 26.46 7.45995C26.46 6.4003 25.601 5.54129 24.5413 5.54129C23.4817 5.54129 22.6227 6.4003 22.6227 7.45995C22.6227 8.5196 23.4817 9.37862 24.5413 9.37862Z" fill="white"/>
</g>
<defs>
<clipPath id="clip0">
<rect width="32" height="32" fill="white"/>
</clipPath>
</defs>
</svg>
