<svg width="300" height="362" viewBox="0 0 300 362" fill="none" xmlns="http://www.w3.org/2000/svg">
<line y1="181.5" x2="300" y2="181.5" stroke="#C1C1C1" stroke-opacity="0.3"/>
<line y1="361.5" x2="300" y2="361.5" stroke="#C1C1C1" stroke-opacity="0.3"/>
<path d="M97.2609 14.192C99.4449 14.248 101.181 14.6307 102.469 15.34C103.776 16.0307 104.709 16.9267 105.269 18.028C105.848 19.1293 106.137 20.3333 106.137 21.64C106.137 22.48 105.988 23.3387 105.689 24.216C105.409 25.0933 104.924 25.9053 104.233 26.652C103.561 27.38 102.656 27.9773 101.517 28.444C100.378 28.9107 98.9596 29.1627 97.2609 29.2V32.28H93.4529V29.2C91.7356 29.1627 90.2982 28.9107 89.1409 28.444C88.0022 27.9773 87.0969 27.3707 86.4249 26.624C85.7529 25.8773 85.2769 25.0747 84.9969 24.216C84.7169 23.3387 84.5769 22.48 84.5769 21.64C84.5769 20.3333 84.8569 19.1293 85.4169 18.028C85.9956 16.9267 86.9289 16.0307 88.2169 15.34C89.5236 14.6307 91.2689 14.248 93.4529 14.192V11.728H97.2609V14.192ZM93.4529 17.496C91.6422 17.5707 90.3729 17.9907 89.6449 18.756C88.9169 19.5027 88.5529 20.4547 88.5529 21.612C88.5529 22.8627 88.9449 23.88 89.7289 24.664C90.5129 25.4293 91.7542 25.8493 93.4529 25.924V17.496ZM97.2609 25.924C98.9782 25.8493 100.22 25.4293 100.985 24.664C101.769 23.88 102.161 22.8627 102.161 21.612C102.161 20.4547 101.797 19.5027 101.069 18.756C100.36 17.9907 99.0902 17.5707 97.2609 17.496V25.924ZM116.311 12.008C118.887 12.008 120.763 12.568 121.939 13.688C123.133 14.7893 123.731 16.3107 123.731 18.252C123.731 19.4093 123.488 20.5013 123.003 21.528C122.517 22.536 121.705 23.348 120.567 23.964C119.447 24.58 117.916 24.888 115.975 24.888H114.155V32H109.927V12.008H116.311ZM116.087 15.48H114.155V21.416H115.555C116.749 21.416 117.692 21.1827 118.383 20.716C119.092 20.2307 119.447 19.456 119.447 18.392C119.447 16.4507 118.327 15.48 116.087 15.48ZM139.017 32H127.509V12.008H139.017V15.48H131.737V19.876H138.513V23.348H131.737V28.5H139.017V32ZM168.321 32H143.177V12.008H147.405V28.472H153.621V12.008H157.877V28.472H164.093V12.008H168.321V32ZM191.508 21.976C191.508 24.048 191.163 25.8587 190.472 27.408C189.8 28.9387 188.764 30.1333 187.364 30.992C185.964 31.8507 184.172 32.28 181.988 32.28C179.823 32.28 178.031 31.8507 176.612 30.992C175.212 30.1333 174.167 28.9293 173.476 27.38C172.804 25.8307 172.468 24.02 172.468 21.948C172.468 19.876 172.804 18.0747 173.476 16.544C174.167 15.0133 175.212 13.828 176.612 12.988C178.031 12.1293 179.832 11.7 182.016 11.7C184.182 11.7 185.964 12.1293 187.364 12.988C188.764 13.828 189.8 15.0227 190.472 16.572C191.163 18.1027 191.508 19.904 191.508 21.976ZM176.92 21.976C176.92 24.0667 177.322 25.7187 178.124 26.932C178.927 28.1267 180.215 28.724 181.988 28.724C183.799 28.724 185.096 28.1267 185.88 26.932C186.664 25.7187 187.056 24.0667 187.056 21.976C187.056 19.8667 186.664 18.2147 185.88 17.02C185.096 15.8253 183.808 15.228 182.016 15.228C180.224 15.228 178.927 15.8253 178.124 17.02C177.322 18.2147 176.92 19.8667 176.92 21.976ZM211.945 32H207.129L199.877 21.864V32H195.649V12.008H199.877V21.696L207.045 12.008H211.553L204.273 21.612L211.945 32Z" fill="#63A60E"/>
<path d="M102.116 45.704C102.116 46.592 101.968 47.368 101.672 48.032C101.384 48.688 100.94 49.2 100.34 49.568C99.7405 49.936 98.9725 50.12 98.0365 50.12C97.1085 50.12 96.3405 49.936 95.7325 49.568C95.1325 49.2 94.6845 48.684 94.3885 48.02C94.1005 47.356 93.9565 46.58 93.9565 45.692C93.9565 44.804 94.1005 44.032 94.3885 43.376C94.6845 42.72 95.1325 42.212 95.7325 41.852C96.3405 41.484 97.1125 41.3 98.0485 41.3C98.9765 41.3 99.7405 41.484 100.34 41.852C100.94 42.212 101.384 42.724 101.672 43.388C101.968 44.044 102.116 44.816 102.116 45.704ZM95.8645 45.704C95.8645 46.6 96.0365 47.308 96.3805 47.828C96.7245 48.34 97.2765 48.596 98.0365 48.596C98.8125 48.596 99.3685 48.34 99.7045 47.828C100.04 47.308 100.208 46.6 100.208 45.704C100.208 44.8 100.04 44.092 99.7045 43.58C99.3685 43.068 98.8165 42.812 98.0485 42.812C97.2805 42.812 96.7245 43.068 96.3805 43.58C96.0365 44.092 95.8645 44.8 95.8645 45.704ZM110.911 50H109.099V46.304H105.703V50H103.891V41.432H105.703V44.792H109.099V41.432H110.911V50ZM119.847 50H118.035V42.944H115.935C115.887 43.312 115.835 43.712 115.779 44.144C115.731 44.576 115.675 45.016 115.611 45.464C115.555 45.904 115.495 46.324 115.431 46.724C115.367 47.116 115.303 47.464 115.239 47.768C115.135 48.264 114.995 48.688 114.819 49.04C114.651 49.392 114.415 49.66 114.111 49.844C113.815 50.028 113.427 50.12 112.947 50.12C112.635 50.12 112.347 50.076 112.083 49.988V48.5C112.187 48.532 112.287 48.56 112.383 48.584C112.487 48.608 112.599 48.62 112.719 48.62C112.951 48.62 113.127 48.5 113.247 48.26C113.375 48.012 113.503 47.552 113.631 46.88C113.679 46.624 113.747 46.224 113.835 45.68C113.923 45.136 114.019 44.5 114.123 43.772C114.235 43.036 114.339 42.256 114.435 41.432H119.847V50ZM127.252 50L126.628 47.96H123.508L122.884 50H120.928L123.952 41.396H126.172L129.208 50H127.252ZM125.572 44.444C125.532 44.308 125.48 44.136 125.416 43.928C125.352 43.72 125.288 43.508 125.224 43.292C125.16 43.076 125.108 42.888 125.068 42.728C125.028 42.888 124.972 43.088 124.9 43.328C124.836 43.56 124.772 43.784 124.708 44C124.652 44.208 124.608 44.356 124.576 44.444L123.964 46.436H126.196L125.572 44.444ZM137.194 38.612C137.154 39.028 137.038 39.396 136.846 39.716C136.654 40.028 136.354 40.272 135.946 40.448C135.538 40.624 134.99 40.712 134.302 40.712C133.598 40.712 133.046 40.628 132.646 40.46C132.254 40.284 131.974 40.04 131.806 39.728C131.638 39.416 131.538 39.044 131.506 38.612H133.102C133.142 39.052 133.254 39.344 133.438 39.488C133.622 39.632 133.922 39.704 134.338 39.704C134.682 39.704 134.962 39.628 135.178 39.476C135.402 39.316 135.534 39.028 135.574 38.612H137.194ZM130.294 41.432H131.926V45.572C131.926 45.772 131.922 45.996 131.914 46.244C131.906 46.492 131.898 46.736 131.89 46.976C131.882 47.208 131.874 47.412 131.866 47.588C131.858 47.756 131.85 47.872 131.842 47.936H131.878L135.838 41.432H138.01V50H136.39V45.884C136.39 45.668 136.394 45.432 136.402 45.176C136.41 44.912 136.418 44.66 136.426 44.42C136.442 44.18 136.454 43.972 136.462 43.796C136.478 43.612 136.49 43.492 136.498 43.436H136.45L132.478 50H130.294V41.432ZM147.193 50H145.381V46.304H141.985V50H140.173V41.432H141.985V44.792H145.381V41.432H147.193V50ZM148.856 47.426C148.828 47.322 148.81 47.21 148.802 47.09C148.794 46.97 148.79 46.868 148.79 46.784C148.79 46.7 148.794 46.598 148.802 46.478C148.81 46.358 148.828 46.244 148.856 46.136H152.042C152.07 46.244 152.088 46.358 152.096 46.478C152.104 46.598 152.108 46.7 152.108 46.784C152.108 46.868 152.104 46.97 152.096 47.09C152.088 47.21 152.07 47.322 152.042 47.426H148.856ZM157.332 50L155.268 43.28H155.22C155.228 43.44 155.24 43.68 155.256 44C155.272 44.32 155.288 44.664 155.304 45.032C155.32 45.392 155.328 45.72 155.328 46.016V50H153.708V41.432H156.18L158.208 47.984H158.244L160.392 41.432H162.864V50H161.172V45.944C161.172 45.672 161.176 45.36 161.184 45.008C161.2 44.656 161.212 44.324 161.22 44.012C161.236 43.692 161.248 43.452 161.256 43.292H161.208L159 50H157.332ZM170.272 50L169.648 47.96H166.528L165.904 50H163.948L166.972 41.396H169.192L172.228 50H170.272ZM168.592 44.444C168.552 44.308 168.5 44.136 168.436 43.928C168.372 43.72 168.308 43.508 168.244 43.292C168.18 43.076 168.128 42.888 168.088 42.728C168.048 42.888 167.992 43.088 167.92 43.328C167.856 43.56 167.792 43.784 167.728 44C167.672 44.208 167.628 44.356 167.596 44.444L166.984 46.436H169.216L168.592 44.444ZM176.049 41.432C177.153 41.432 177.957 41.672 178.461 42.152C178.973 42.624 179.229 43.276 179.229 44.108C179.229 44.604 179.125 45.072 178.917 45.512C178.709 45.944 178.361 46.292 177.873 46.556C177.393 46.82 176.737 46.952 175.905 46.952H175.125V50H173.313V41.432H176.049ZM175.953 42.92H175.125V45.464H175.725C176.237 45.464 176.641 45.364 176.937 45.164C177.241 44.956 177.393 44.624 177.393 44.168C177.393 43.336 176.913 42.92 175.953 42.92ZM187.832 50H185.768L182.66 45.656V50H180.848V41.432H182.66V45.584L185.732 41.432H187.664L184.544 45.548L187.832 50ZM193.843 50H188.911V41.432H193.843V42.92H190.723V44.804H193.627V46.292H190.723V48.5H193.843V50ZM198.926 50H197.114V42.944H194.786V41.432H201.254V42.944H198.926V50Z" fill="#63A60E"/>
<path opacity="0.2" d="M69.6482 59.0669C69.6482 58.5552 58.174 58.1338 44.0366 58.1338C29.8993 58.1338 18.425 58.5552 18.425 59.0669C18.425 59.5786 29.8993 60 44.0366 60C58.2069 60 69.6482 59.5786 69.6482 59.0669Z" fill="#5D5D5D"/>
<path d="M44.3985 11.8098C55.544 11.8098 64.5853 20.0873 64.5853 30.2913V48.7727H44.3985C33.253 48.7727 24.2117 40.4952 24.2117 30.2913V11.8098H44.3985Z" fill="#63A60E"/>
<path opacity="0.3" d="M61.692 20.7796C60.0153 22.5555 58.9961 24.8732 58.9961 27.4016C58.9961 31.1641 61.2318 34.445 64.5524 36.2209V30.2912C64.5524 26.8297 63.5332 23.5789 61.692 20.7796Z" fill="#63A60E"/>
<path d="M53.7685 13.9469C50.6122 15.6024 48.5081 18.7027 48.5081 22.2846C48.5081 27.5822 53.2095 31.8865 58.996 31.8865C61.0344 31.8865 62.9413 31.3447 64.5523 30.4116V30.2912C64.5523 23.1876 60.1796 17.0171 53.7685 13.9469Z" fill="#63A60E"/>
<path opacity="0.5" d="M37.9216 15.3909C32.7269 15.3909 27.9597 17.0464 24.2117 19.8457V30.3205C24.2117 40.5245 33.253 48.802 44.3985 48.802H54.0645C57.5824 45.2502 59.7194 40.5546 59.7194 35.3773C59.7194 24.3306 49.9548 15.3909 37.9216 15.3909Z" fill="#E0EDCF"/>
<path d="M64.5524 48.7425L44.3985 48.7726C33.253 48.7726 24.2117 40.4951 24.2117 30.2912V11.8398L64.5524 48.7425Z" fill="#63A60E"/>
<path opacity="0.3" d="M27.335 18.4317C27.335 32.4584 39.7627 43.8061 55.0507 43.8061C56.3658 43.8061 57.648 43.7158 58.8974 43.5653L27.598 14.9401C27.4336 16.0839 27.335 17.2578 27.335 18.4317Z" fill="#63A60E"/>
<path opacity="0.3" d="M64.5523 48.7726L24.376 11.9903C29.1103 18.4619 34.568 25.0237 40.1243 30.4417C44.4641 34.6557 56.9905 44.077 64.5523 48.7726Z" fill="#63A60E"/>
<path opacity="0.3" d="M37.3956 23.8799L24.2117 11.8398V30.3213C24.2117 38.4784 29.9981 45.4014 37.9874 47.8395C34.5681 44.679 32.4639 40.3446 32.4639 35.5888C32.4639 31.0738 34.3379 26.9802 37.3956 23.8799Z" fill="#63A60E"/>
<path opacity="0.3" d="M55.3467 40.3447C51.9274 44.1674 46.7328 46.6356 40.9135 46.6356C37.0339 46.6356 33.4174 45.552 30.4255 43.6858C34.0421 46.8463 38.9408 48.8028 44.3656 48.8028H64.5524V48.7727L55.3467 40.3447Z" fill="#63A60E"/>
<path opacity="0.3" d="M25.3953 22.8866C25.3953 19.9067 25.9542 17.017 27.0063 14.3682L24.2117 11.8398V30.3213C24.2117 40.5252 33.253 48.8028 44.3985 48.8028H64.5853V48.7726L62.5797 46.9365C59.6536 47.8997 56.5303 48.4114 53.2425 48.4114C37.8558 48.3813 25.3953 36.9734 25.3953 22.8866Z" fill="#E0EDCF"/>
<path d="M64.2235 52.3546C65.6372 51.9934 67.1167 52.776 67.4784 54.0703C67.8729 55.3646 67.0181 56.7191 65.5715 57.0502C64.1577 57.4114 62.6782 56.6288 62.3166 55.3345C61.9549 54.0402 62.8097 52.7158 64.2235 52.3546ZM63.6974 50.5185C61.1659 51.1506 59.6535 53.4984 60.3439 55.8161C61.0015 58.1338 63.5988 59.5184 66.1304 58.8863C68.662 58.2542 70.1743 55.8763 69.4839 53.5887C68.8263 51.271 66.229 49.9165 63.6974 50.5185Z" fill="#63A60E"/>
<path opacity="0.5" d="M67.0505 56.1768C66.6888 56.5982 66.1956 56.9293 65.6038 57.0798C64.1901 57.441 62.7106 56.6584 62.349 55.3641C62.086 54.4009 62.4476 53.4377 63.2367 52.8658C62.8421 52.3541 62.5134 51.7822 62.1846 51.2103C60.6065 52.2337 59.8174 54.0698 60.3434 55.8758C61.001 58.1935 63.5983 59.5781 66.1299 58.946C67.3135 58.645 68.2669 57.9828 68.8916 57.1099C68.2669 56.8089 67.6423 56.5079 67.0505 56.1768Z" fill="#63A60E"/>
<path d="M25.1648 52.3546C26.5785 52.0235 28.058 52.8061 28.4196 54.1004C28.7813 55.3947 27.9265 56.7492 26.5127 57.0803C25.099 57.4114 23.6195 56.6288 23.2579 55.3345C22.8962 54.0402 23.751 52.6857 25.1648 52.3546ZM24.6387 50.5185C22.1072 51.1205 20.5948 53.4984 21.2523 55.8161C21.9099 58.1338 24.5072 59.5184 27.0388 58.9164C29.5704 58.3144 31.0827 55.9365 30.458 53.6188C29.7676 51.3011 27.1703 49.9165 24.6387 50.5185Z" fill="#63A60E"/>
<path opacity="0.5" d="M27.9597 56.207C27.598 56.6284 27.1049 56.9595 26.5131 57.0799C25.0993 57.411 23.6198 56.6284 23.2582 55.3341C22.9952 54.3709 23.3897 53.4077 24.1459 52.8358C23.7514 52.3241 23.4226 51.7522 23.1267 51.1803C21.5486 52.1736 20.7266 54.0097 21.2527 55.8157C21.9102 58.1334 24.5075 59.518 27.0391 58.916C28.2227 58.6451 29.209 57.9528 29.8008 57.0799C29.1433 56.8391 28.5515 56.5381 27.9597 56.207Z" fill="#63A60E"/>
<path d="M25.4938 10.5455C24.8691 10.5455 24.3431 10.0639 24.3431 9.49205C24.3431 7.02384 23.5869 5.15763 22.1403 3.92353C19.806 1.90682 16.2881 2.11752 16.2552 2.11752C15.6306 2.17772 15.0716 1.72622 15.0059 1.15432C14.9401 0.582418 15.4333 0.0707164 16.058 0.0105162C16.2552 0.0105162 20.5951 -0.290485 23.6856 2.32822C25.6582 3.98373 26.6445 6.39174 26.6445 9.46194C26.6445 10.0639 26.1514 10.5455 25.4938 10.5455Z" fill="#63A60E"/>
</svg>
