<svg width="1290" height="59" viewBox="0 0 1290 59" fill="none" xmlns="http://www.w3.org/2000/svg">
<path fill-rule="evenodd" clip-rule="evenodd" d="M54.1362 13.0033C53.2391 13.0677 52.4373 13.3251 51.8288 13.6468C50.611 14.2898 48.3036 16.8946 48.3036 16.8946C46.8929 18.6949 48.4315 18.9202 48.4315 18.9202C48.4315 18.9523 48.4631 18.9523 48.4956 18.9523C48.2591 19.1874 48.0345 19.4343 47.8226 19.6919C47.4377 20.1419 47.2774 20.5279 47.2453 20.8175V21.1071C47.3415 21.6214 47.95 21.7179 47.95 21.7179C50.4507 22.1362 49.8417 23.6474 52.0208 24.6761C52.7901 25.03 53.4957 25.2226 54.1362 25.3196C55.803 25.5126 57.1179 24.9339 58.0146 24.4513C60.0659 23.2939 60.8993 21.6218 61.0913 21.461C61.2516 21.3001 61.9893 20.0462 60.8347 19.6606C61.2196 19.1458 61.4761 18.728 61.5724 18.6636C61.6686 18.5993 61.9563 18.1171 61.9563 17.6989C61.9563 17.2811 61.7643 16.895 60.9951 16.7985C59.4249 16.5093 59.0084 15.2228 57.0846 13.8724C56.0913 13.1642 55.0654 12.9712 54.1362 13.0033ZM54.1362 24.1931C52.374 23.9683 51.4119 22.714 50.7714 21.9744C50.0983 21.2027 49.329 20.8488 48.9758 20.7527C48.6235 20.6884 48.5918 20.7206 48.7193 20.5275C48.848 20.3345 49.521 19.5949 49.521 19.5949C51.1554 21.9423 53.0787 22.6175 54.1362 22.8427C54.6173 22.9392 54.9055 22.907 54.9055 22.907C56.8605 23.2927 59.6177 21.3957 59.6177 21.3957C58.8485 22.2962 57.1179 24.1931 54.7781 24.2252C54.5527 24.2252 54.3291 24.2252 54.1362 24.1931Z" fill="#FFF22D"/>
<path fill-rule="evenodd" clip-rule="evenodd" d="M20.4175 36.5727C19.1136 39.82 17.8101 43.0674 16.507 46.3151H23.8153C23.8153 46.3151 22.5008 45.6399 23.1739 43.6147C23.879 41.5886 24.552 39.7239 24.552 39.7239C24.552 39.7239 24.6483 39.5304 24.8086 39.6596C24.8086 39.6596 25.2892 40.7848 27.5971 40.7204C27.7895 40.6887 28.014 40.6887 28.206 40.6569C30.3214 40.4643 32.4692 39.4674 33.6866 36.5405C33.9753 35.8336 34.2956 35.1262 34.5842 34.4184C35.6737 31.8463 36.4751 29.3064 34.7125 27.7951C34.6804 27.7629 34.6163 27.7307 34.5842 27.6986C33.1739 26.6051 31.3788 26.7016 28.2055 26.766C26.8594 26.766 25.2568 26.7982 23.3334 26.7016L22.4358 26.8625C22.4358 26.8625 23.8144 27.6986 23.173 29.4994C22.9177 30.2376 21.7315 33.2928 20.4175 36.5727ZM77.6628 40.013C78.3996 39.7887 79.041 39.1452 79.233 38.2444C79.4896 37.1192 78.849 36.3792 77.9194 36.3792C77.8223 36.3792 77.7591 36.4118 77.6628 36.4118C77.2459 36.4762 76.8611 36.6692 76.5404 36.9579C76.2838 37.1831 76.0602 37.5048 75.8998 37.8587C75.8673 37.987 75.8357 38.1161 75.8036 38.244C75.7074 38.6948 75.7711 39.1126 75.8998 39.4018C76.0602 39.6591 76.2522 39.8843 76.5404 39.9809C76.7332 40.0452 76.9252 40.0774 77.1501 40.0774V40.1091C77.3254 40.1085 77.4991 40.0759 77.6628 40.013ZM77.6628 35.8649C77.7907 35.8331 77.9194 35.8331 78.0468 35.8331C79.2972 35.8331 80.2584 36.734 79.9377 38.2444C79.6812 39.4987 78.7199 40.3348 77.6628 40.5921C77.4384 40.6239 77.2459 40.6565 77.0214 40.6565C76.8611 40.6565 76.7007 40.6239 76.5404 40.6239C76.3167 40.5604 76.0918 40.4956 75.8998 40.3995C75.2584 40.0135 74.9061 39.2744 75.098 38.2448C75.2584 37.634 75.5475 37.1196 75.8998 36.7344C76.0911 36.5458 76.3065 36.3835 76.5404 36.2518C76.8936 36.0584 77.278 35.8975 77.6628 35.8649ZM77.6628 39.3704L77.3421 38.4379H77.0856L76.8611 39.5304H76.3167L76.5404 38.4053L76.8611 36.9266H77.8223C78.4954 36.9266 78.8486 37.1192 78.7203 37.7301C78.6241 38.2126 78.3034 38.3735 77.9511 38.4053L78.368 39.5304H77.7266L77.6628 39.3704ZM77.6628 37.3762H77.6945C77.919 37.3762 78.1756 37.4088 78.1431 37.6661C78.0798 37.9553 77.9194 38.0196 77.6628 38.0196H77.1818L77.3105 37.3762H77.6628ZM76.5404 27.859C76.9252 28.5985 76.7649 29.4024 76.7007 29.8524C76.7007 30.0768 76.6366 30.3668 76.5404 30.6559C76.3693 31.2392 76.1552 31.8088 75.8998 32.3602C75.6108 33.068 75.3225 33.6145 75.3225 33.6145H67.9822C67.1813 35.254 67.4695 37.5692 70.0976 37.4409C70.2263 37.4409 70.3541 37.4409 70.4824 37.4092C72.9185 37.184 74.5849 35.8331 74.5849 35.8331L73.4949 38.6626C73.4949 38.6626 72.7902 39.8204 70.4824 40.3022C69.6815 40.4956 68.6553 40.5921 67.4374 40.5274C65.7069 40.4639 64.5211 39.9813 63.7519 39.2739C60.9951 36.7975 63.367 31.5567 63.1421 32.1028C63.2708 31.7811 63.4628 31.235 63.7519 30.5594C64.5853 28.7268 66.3475 26.0904 70.4824 25.9295H71.1555C73.7194 25.9938 75.1618 26.476 75.8994 27.0873C76.2205 27.3442 76.4125 27.6016 76.5404 27.859ZM70.4829 31.5567H71.3479C71.7328 31.4924 73.1426 28.9198 71.2838 28.7272C70.9956 28.6951 70.7074 28.7594 70.4829 28.8559C69.2325 29.3703 68.7523 31.428 68.7523 31.428C68.7198 31.5572 68.8802 31.5572 68.8802 31.5572H70.4829V31.5567ZM63.7523 28.6946H64.1692L65.0988 26.5082H62.8547L63.7527 24.2252L64.7781 21.6848H62.7906C60.4832 26.9903 56.0917 26.5082 56.0917 26.5082L55.1945 28.6946H56.7972L53.4957 36.9262L52.0533 40.4952H59.7452C57.7264 39.5944 58.367 37.9231 58.367 37.9231C58.367 37.9231 60.6427 32.0063 62.0209 28.6946H63.7523ZM53.4957 30.045C52.1166 33.4215 50.3865 37.9231 50.3865 37.9231C50.3865 37.9231 49.8092 39.4983 51.4765 40.4952H43.7838L46.0279 34.9327L49.3611 26.6043H54.9384C54.6814 27.119 54.1362 28.4699 53.4957 30.045ZM46.0275 30.785C45.5464 30.4633 44.6484 30.1742 43.3348 31.0424C41.6043 32.1993 40.0016 37.9235 40.0016 37.9235C40.0016 37.9235 39.6492 39.7887 41.0916 40.4956H33.4309C33.4309 40.4956 33.9116 39.3061 34.5846 37.6661C35.8666 34.4506 37.8221 29.6272 37.8541 29.4664C37.9183 29.1772 38.8479 27.8907 37.4056 26.7334H42.8221L42.341 28.1481C42.341 28.1481 42.3735 28.3733 42.5655 28.1481C42.7259 27.9873 43.7196 26.7977 46.0275 26.3795C46.6364 26.2508 47.3736 26.1864 48.239 26.2508L46.3482 31.0737C46.3482 31.0741 46.2511 30.9133 46.0275 30.785ZM28.206 36.6692C27.7891 37.4409 27.3084 37.8587 26.5396 37.7301C25.001 37.4727 27.6291 32.5541 28.1102 30.9781C28.1102 30.9781 28.1423 30.8489 28.2064 30.6889C28.4309 30.142 28.9436 29.0807 29.6808 29.4346C30.6104 29.8529 30.5783 30.3989 29.5846 33.0358C29.0715 34.4506 28.687 35.801 28.206 36.6692ZM24.2959 20.5922L21.6995 25.4795C21.6995 25.4795 21.6353 23.1322 20.4175 21.7496C19.8086 21.0744 18.9752 20.624 17.7253 20.7527C13.9431 21.1066 14.9368 24.6113 15.3854 25.7369C15.3854 25.7369 18.5907 33.7436 18.6224 34.3215C18.6865 34.9006 19.8082 37.6661 17.0839 40.7843C17.0839 40.7843 13.013 46.572 4.13456 43.5499C4.13456 43.5499 0.929195 42.4565 0 39.2091L3.68599 34.5149C3.68599 34.5149 2.66059 40.6561 8.42989 40.1735C13.8468 39.6909 10.1288 32.5206 9.80808 31.6528C9.2633 30.0768 5.96173 22.7461 9.77601 19.3701C12.5007 16.9263 17.0197 16.2189 20.4175 17.3767C22.1164 17.9554 23.5587 19.0166 24.2959 20.5922Z" fill="#33A457"/>
<g clip-path="url(#clip0)">
<path d="M741.226 44.3374C732.907 44.3374 726.139 37.5637 726.139 29.2386C726.139 20.9126 732.907 14.1393 741.226 14.1393C749.545 14.1393 756.312 20.9129 756.312 29.2386C756.312 37.5637 749.545 44.3374 741.226 44.3374Z" fill="white"/>
<path d="M741.226 14.2779C749.481 14.2779 756.174 20.9758 756.174 29.2385C756.174 37.5012 749.481 44.1988 741.226 44.1988C732.97 44.1988 726.277 37.5009 726.277 29.2385C726.277 20.9761 732.97 14.2779 741.226 14.2779ZM741.226 14.0005C732.83 14.0005 726 20.8363 726 29.2385C726 37.6411 732.83 44.4763 741.226 44.4763C749.621 44.4763 756.451 37.6402 756.451 29.2385C756.451 20.8363 749.621 14.0005 741.226 14.0005Z" fill="#004883"/>
<path d="M805.72 23.102C805.888 22.9062 806 22.6828 806 22.4029C806.002 22.125 805.902 21.856 805.72 21.6465C805.523 21.4501 805.273 21.338 804.992 21.338C804.713 21.338 804.489 21.4504 804.264 21.6465C804.069 21.8427 803.984 22.0946 803.984 22.4029C803.984 22.6828 804.069 22.9062 804.264 23.102C804.489 23.2982 804.713 23.382 804.992 23.382C805.273 23.382 805.523 23.2982 805.72 23.102ZM805.777 33.4062V24.3622H804.265L804.293 33.4062H805.777ZM802.277 24.8106L802.026 24.6982C801.354 24.3059 800.542 24.1103 799.563 24.1103C798.499 24.1103 797.632 24.3619 796.988 24.8661C796.652 25.1183 796.428 25.3699 796.26 25.7064C796.093 26.0141 796.008 26.3221 796.008 26.6858C796.008 27.3021 796.288 27.8059 796.793 28.2537C797.268 28.674 797.967 29.01 798.891 29.2897C799.674 29.5416 800.206 29.7938 800.542 30.046C800.822 30.3262 800.99 30.6339 800.99 31.0257C800.99 31.4457 800.766 31.7817 800.374 32.062C799.982 32.2861 799.421 32.426 798.723 32.426C797.967 32.426 797.212 32.2298 796.428 31.8652L796.232 31.726L795.588 32.9015L795.813 33.0136C796.68 33.4337 797.632 33.6293 798.667 33.6293C799.787 33.6293 800.711 33.4054 801.438 32.9015C801.802 32.6773 802.054 32.3699 802.25 32.0622C802.445 31.6982 802.53 31.3056 802.53 30.9139V30.885C802.53 30.2133 802.25 29.6251 801.718 29.1496C801.271 28.7581 800.543 28.4216 799.591 28.1419C798.863 27.8889 798.332 27.6372 798.023 27.4413C797.688 27.1889 797.548 26.9095 797.548 26.6015C797.548 26.2372 797.688 25.9578 797.996 25.7059C798.332 25.4814 798.779 25.3413 799.367 25.3413C800.179 25.3413 800.85 25.4814 801.382 25.8174L801.578 25.9575L802.277 24.8106ZM793.154 25.4823C792.118 24.5864 790.831 24.1106 789.347 24.1106C787.891 24.1106 786.688 24.5581 785.709 25.4262C784.617 26.4067 784.058 27.7501 784.058 29.5141V36.5419H785.512V32.0062C785.96 32.5098 786.521 32.9021 787.192 33.1826C787.864 33.49 788.591 33.6298 789.375 33.6298C790.859 33.6298 792.118 33.1826 793.154 32.2295C794.218 31.3056 794.748 30.1861 794.748 28.8696C794.748 27.526 794.218 26.4064 793.154 25.4823ZM789.347 25.3699C790.439 25.3699 791.39 25.7064 792.117 26.3779C792.874 27.0498 793.265 27.8894 793.265 28.8985C793.265 29.8496 792.929 30.6337 792.258 31.3056C791.53 32.0056 790.551 32.3699 789.375 32.3699C788.199 32.3699 787.247 32.0059 786.492 31.3056C785.793 30.6062 785.457 29.8221 785.457 28.8985C785.457 27.9738 785.793 27.1622 786.492 26.4897C787.22 25.7622 788.172 25.3699 789.347 25.3699ZM781.734 25.9306C780.755 24.6982 779.356 24.1103 777.48 24.1103C776.08 24.1103 774.876 24.5023 773.841 25.3419C772.722 26.21 772.163 27.3864 772.163 28.8422C772.163 29.654 772.386 30.4661 772.862 31.2218C773.282 31.9496 773.926 32.5381 774.793 32.9856C775.661 33.4059 776.584 33.6015 777.592 33.6015C778.544 33.6015 779.439 33.4059 780.307 32.9856C781.174 32.5381 781.818 31.9496 782.238 31.2218L782.518 30.7457H780.895C780.558 31.2218 780.082 31.6142 779.467 31.9218C778.852 32.2295 778.18 32.3699 777.536 32.3699C776.64 32.3699 775.885 32.1452 775.213 31.6974C774.541 31.2216 774.094 30.6337 773.814 29.8496C774.737 29.4856 775.661 29.2894 776.669 29.2894L778.18 29.457L780.531 29.6815C781.258 29.6815 781.875 29.5694 782.434 29.4018C782.658 29.3174 782.798 29.2053 782.854 29.0652C782.938 28.9534 782.938 28.7581 782.882 28.5331C782.714 27.526 782.35 26.6584 781.734 25.9306ZM781.343 28.2271L781.371 28.2826L780.559 28.3944L778.796 28.2268L776.333 28.0301H775.913C775.129 28.0861 774.401 28.2268 773.701 28.4782C773.813 27.4419 774.317 26.6295 775.157 26.0422C775.856 25.5935 776.641 25.3419 777.48 25.3419C778.795 25.3419 779.803 25.7619 780.559 26.602C780.951 27.1064 781.23 27.638 781.343 28.2271ZM765.641 24.1103C764.213 24.1103 762.982 24.5578 762.002 25.4259C760.911 26.4064 760.379 27.7499 760.379 29.5136L760.351 36.5414H761.863L761.834 32.0056C762.282 32.5095 762.842 32.9015 763.486 33.182C764.185 33.4897 764.913 33.629 765.697 33.629C767.18 33.629 768.44 33.182 769.475 32.2293C770.539 31.3054 771.042 30.1853 771.042 28.8691C771.042 27.5251 770.539 26.4056 769.503 25.4814C768.44 24.5861 767.18 24.1103 765.641 24.1103ZM762.786 26.49C763.542 25.7622 764.466 25.3699 765.641 25.3699C766.761 25.3699 767.684 25.7064 768.439 26.3779C769.196 27.0498 769.559 27.8894 769.559 28.8985C769.559 29.8496 769.223 30.6337 768.579 31.3056C767.852 32.0056 766.9 32.3699 765.669 32.3699C764.521 32.3699 763.542 32.0059 762.786 31.3056C762.114 30.6062 761.778 29.8221 761.778 28.8985C761.778 27.974 762.114 27.1625 762.786 26.49Z" fill="#004883"/>
<path d="M749.773 17.9021C749.645 17.8048 749.523 17.6992 749.408 17.5858C747.014 15.8965 744.155 14.9916 741.226 14.9959C733.367 14.9959 726.996 21.3722 726.996 29.2379C726.992 32.3029 727.979 35.287 729.812 37.7436C734.574 36.3369 738.728 33.8896 742.289 30.3524C745.845 26.8321 748.343 22.6657 749.773 17.9021Z" fill="#E32934"/>
<path d="M741.226 43.4799C749.084 43.4799 755.455 37.1028 755.455 29.2376C755.455 26.4534 754.656 23.8574 753.277 21.6641C753.241 21.628 753.208 21.5883 753.18 21.5457C753.469 22.5015 753.616 23.495 753.615 24.4938C753.615 26.11 753.242 27.6395 752.508 29.0717C751.783 30.4319 750.764 31.613 749.525 32.529C748.53 33.2629 747.336 33.8849 745.931 34.3949C744.813 34.8044 743.358 35.2278 741.555 35.6376L736.358 36.8076C734.148 37.3142 732.136 37.8563 730.343 38.4115C732.953 41.5114 736.859 43.4799 741.226 43.4799Z" fill="#004883"/>
</g>
<g clip-path="url(#clip1)">
<path d="M1244.44 58.7011C1260.6 58.7011 1273.7 45.5604 1273.7 29.3506C1273.7 13.1407 1260.6 0 1244.44 0C1228.28 0 1215.18 13.1407 1215.18 29.3506C1215.18 45.5604 1228.28 58.7011 1244.44 58.7011Z" fill="#F4991D"/>
<path d="M1210 16.3114L1226.07 14.6288C1226.07 14.6288 1220.32 9.96445 1219.69 7.79947C1219.69 7.79947 1219.45 6.59914 1221.37 5.96883C1223.29 5.33852 1231.44 2.12119 1231.44 2.12119C1231.44 2.12119 1243.19 -1.53461 1248.71 12.8036L1258.53 11.2634V12.8036L1275.8 12.3213L1276.42 18.3339H1280.74L1285.92 36.2786L1263.38 53.8396C1263.38 53.8396 1258.2 58.312 1246.84 58.5532L1213.89 45.4208L1210 16.3114Z" fill="#2F358C"/>
<path d="M1221.7 7.89263C1221.7 7.89263 1228.28 5.39331 1228.8 4.86166C1229.37 4.28616 1237.19 1.34836 1242.61 6.06199C1242.61 6.06199 1246.45 9.81645 1247.65 14.3382L1249.95 19.0519L1251.15 21.2662C1251.15 21.2662 1251.48 22.0829 1251.15 22.2308C1250.81 22.3788 1248.37 18.4764 1248.37 18.4764L1247.26 16.8869C1247.26 16.8869 1246.3 15.6372 1243.52 16.2127C1240.74 16.7882 1236.47 17.2706 1233.4 16.7444C1230.39 16.1634 1223.28 10.1015 1221.7 7.89263Z" fill="#75B947"/>
<path d="M1234.17 16.695C1231.1 16.1634 1224 10.1014 1222.42 7.89261C1222.42 7.89261 1228.99 5.39329 1229.52 4.86164C1229.81 4.57115 1232.35 3.51332 1235.51 3.42015C1232.06 3.32149 1229.13 4.5273 1228.8 4.86164C1228.23 5.43714 1221.7 7.89261 1221.7 7.89261C1223.29 10.1563 1230.39 16.2182 1233.46 16.695C1234.51 16.8869 1235.66 16.9362 1236.86 16.9362C1235.9 16.8869 1234.99 16.8375 1234.17 16.695Z" fill="#609744"/>
<path d="M1227.46 9.57531C1227.46 9.57531 1230.48 8.08448 1232.11 9.57531C1235.32 12.5076 1242.27 14.0478 1243.62 13.7628C1243.62 13.7628 1236.66 15.3523 1234.65 14.2451C1232.01 12.7981 1230.43 10.825 1227.46 9.57531Z" fill="#609744"/>
<path d="M1212.45 18.4763L1216.19 44.2149L1221.7 43.8312L1220.84 32.7652L1226.35 32.2829L1225.63 27.4706L1220.12 28.1941L1219.64 23.5297L1226.35 22.3294L1225.39 16.1688L1212.45 18.4763ZM1241.13 20.6413L1243.77 41.6663L1248.9 41.0908L1248.18 30.507L1256.57 40.2248L1260.55 39.7424L1257.43 14.245L1251.77 14.8698L1252.97 25.5522L1246.4 19.5341L1241.13 20.6413Z" fill="white"/>
<path d="M1246.4 20.0165L1252.97 26.0291L1252.92 25.4974L1246.4 19.5341L1241.12 20.6413L1241.17 21.0743L1246.4 20.0165ZM1257.43 14.7218L1260.5 39.7425H1260.55L1257.43 14.245L1251.77 14.8698L1251.87 15.3522L1257.43 14.7218ZM1248.18 30.9839L1248.9 41.0853L1248.22 30.9839H1248.18Z" fill="#CDCBE6"/>
<path d="M1258.87 15.2041L1259.59 20.8824L1262.94 20.9811L1264.48 38.6846L1270.86 38.5421L1270.23 20.4987L1274.69 20.1644L1273.83 14.0038L1258.87 15.2041Z" fill="white"/>
<path d="M1259.45 15.7797L1264 15.1549L1273.83 13.9984L1258.87 15.1987L1259.59 20.8825H1260.07L1259.45 15.7797ZM1263.52 21.5567L1262.99 21.5073L1264.48 38.6847L1265.01 38.6354L1263.52 21.5567Z" fill="#CDCBE6"/>
<path d="M1234.51 19.2931L1229.09 19.9179L1226.79 43.3983L1231.11 43.1572L1232.21 36.9034L1235.33 36.5197L1237.87 42.2912L1242.42 41.6664L1234.51 19.2931ZM1232.11 32.9078L1232.73 28.819H1233.7L1235.13 32.5735L1232.11 32.9078Z" fill="white"/>
<path d="M1229.23 20.1098L1234.55 19.3424L1234.5 19.2931L1229.13 19.9179L1226.83 43.349L1227.8 43.2997L1229.23 20.1098ZM1238.73 42.1432L1236.04 36.465L1235.42 36.5636L1237.87 42.2912L1242.42 41.6664V41.5239L1238.73 42.1432Z" fill="#CDCBE6"/>
<path d="M1279.73 20.8824L1272.54 21.9896L1272.78 38.0105L1276.61 37.6268L1276.85 33.538L1279.01 33.2968L1280.69 36.6621L1284.77 36.5196L1279.73 20.8824ZM1278.01 30.1179C1276.66 30.2165 1276.33 29.4437 1276.09 28.6764L1279.21 28.342C1279.21 28.3366 1279.35 30.0192 1278.01 30.1179Z" fill="white"/>
<path d="M1273.5 22.324L1279.97 21.6005L1279.73 20.8331L1272.54 21.9403L1272.78 37.9118H1273.11L1273.5 22.324ZM1279.88 29.0107L1279.11 29.0601C1279.01 29.5424 1278.73 30.0686 1277.96 30.1179C1277.58 30.1672 1277.24 30.0686 1277 29.9754C1277.24 30.4084 1277.67 30.7427 1278.58 30.7427C1279.92 30.6934 1279.88 29.0107 1279.88 29.0107ZM1279.49 33.8724L1279.35 33.9217L1280.7 36.6183H1280.74L1279.49 33.8724Z" fill="#C6C3E1"/>
<path d="M1213.64 27.1855L1216.33 44.2149L1217.44 44.1162L1214.32 27.6624L1213.64 27.1855Z" fill="#CDCBE6"/>
<path d="M1287.55 34.3986L1287.12 34.4972L1287.07 34.3547L1288.08 34.1629L1288.13 34.3054L1287.69 34.4041L1287.89 35.6537L1287.69 35.7031L1287.55 34.3986ZM1289.71 34.6891C1289.66 34.4972 1289.61 34.2561 1289.57 34.1136C1289.57 34.3054 1289.52 34.4479 1289.47 34.6891L1289.33 35.4126H1289.19L1288.85 34.7877C1288.75 34.5959 1288.66 34.4534 1288.61 34.2561C1288.66 34.4479 1288.66 34.6398 1288.71 34.8809L1288.76 35.4564L1288.57 35.5057L1288.43 34.1081L1288.67 34.0588L1289 34.6836C1289.1 34.8261 1289.14 34.9741 1289.24 35.1166C1289.24 34.9741 1289.29 34.8261 1289.29 34.6343L1289.43 33.9108L1289.67 33.8615L1290.01 35.2098L1289.81 35.2591L1289.71 34.6891Z" fill="#2F358C"/>
</g>
<g clip-path="url(#clip2)">
<path d="M313.878 16.6052C314.554 16.6052 315.101 16.0567 315.101 15.38C315.101 14.7033 314.554 14.1548 313.878 14.1548C313.202 14.1548 312.654 14.7033 312.654 15.38C312.654 16.0567 313.202 16.6052 313.878 16.6052Z" fill="#7B002B"/>
<path d="M314.865 14.9316C314.954 15.1265 314.984 15.3433 314.95 15.5548C314.916 15.7663 314.82 15.963 314.674 16.1201C314.529 16.2771 314.34 16.3875 314.132 16.4373C313.924 16.4871 313.706 16.474 313.505 16.3998C313.304 16.3256 313.13 16.1935 313.004 16.0203C312.879 15.847 312.807 15.6403 312.798 15.4262C312.79 15.2122 312.844 15.0004 312.956 14.8175C313.067 14.6346 313.23 14.4889 313.424 14.3987C313.686 14.2793 313.985 14.2682 314.254 14.368C314.524 14.4679 314.744 14.6704 314.865 14.9316Z" fill="white"/>
<path d="M288.7 33.8353V34.1581L283.277 36.7155V36.2858C283.277 36.2858 284.011 35.5765 284.011 33.6177V21.3898C284.011 21.3898 283.775 19.8024 282.983 19.4572V19.1101L286.178 17.7348C286.49 17.5997 287.231 17.0255 287.425 16.7047H287.712V17.7929C288.765 16.1474 290.167 15.1417 291.861 15.0235C294.525 14.8284 295.2 17.9018 295.116 20.0389C294.981 23.6864 292.695 27.7993 289.044 28.516C288.623 28.6004 288.158 28.5085 287.712 28.364V32.0453C287.714 32.0472 287.662 33.3813 288.7 33.8353Z" fill="#7B002B"/>
<path d="M276.659 39.3328V39.6631L271.245 42.2205V41.7908C271.245 41.7908 271.97 41.0816 271.97 39.1227V26.8967C271.97 26.8967 271.734 25.3075 270.942 24.9622V24.617L274.146 23.2398C274.459 23.1066 275.199 22.5305 275.394 22.2022H275.673V23.2998C276.734 21.6524 278.126 20.6486 279.822 20.5229C282.486 20.3353 283.151 23.4011 283.076 25.5458C282.942 29.1839 280.665 33.2986 277.015 34.0154C276.586 34.0998 276.121 34.0154 275.675 33.8634V37.5541C275.673 37.5503 275.63 38.8844 276.659 39.3328ZM306.465 14.4756L299.794 17.7253C299.794 17.7253 299.744 20.0557 301.835 20.0557C303.926 20.0557 306.489 16.7553 306.489 16.7553L306.726 16.8829L305.916 20.0238C305.916 20.0238 302.331 23.5362 299.12 23.5362C295.899 23.5362 295.798 18.9749 295.798 18.9749C295.798 18.9749 295.588 13.8508 300.553 10.8093C305.521 7.82219 306.727 12.5674 306.465 14.4756Z" fill="#7B002B"/>
<path d="M270.925 30.7207L264.254 33.9705C264.254 33.9705 264.204 36.3008 266.295 36.3008C268.386 36.3008 270.949 32.9985 270.949 32.9985L271.185 33.1336L270.376 36.2746C270.376 36.2746 266.791 39.7795 263.57 39.7795C260.359 39.7795 260.248 35.2295 260.248 35.2295C260.248 35.2295 260.046 30.0959 265.011 27.0638C269.981 24.0842 271.185 28.8125 270.925 30.7207Z" fill="#7B002B"/>
<path d="M260.823 41.0122V41.3255L252.333 45.2339V44.8717C252.333 44.8717 253.504 43.5715 253.504 41.4268V24.2774C253.504 24.2774 253.589 20.9676 251.869 20.309V20.0238L261.144 15.7515C266.362 13.3348 267.931 15.8097 268.142 18.2489C268.412 21.2979 267.147 24.8591 264.264 26.5759C262.857 27.4109 261.421 28.1952 259.963 28.805V28.2908C261.946 26.7541 263.109 24.1536 263.042 21.5962C263.008 20.4723 261.905 18.9956 260.462 19.7124L258.59 20.6505V37.4435C258.59 37.4416 258.537 41.5619 260.823 41.0122ZM312.006 17.4721V17.7085L306.795 20.2002V19.7781C306.795 19.7781 307.385 18.9844 307.385 17.4721V10.0682C307.385 10.0682 307.267 9.0212 306.373 8.44705L310.057 6.75087C310.057 6.75087 310.698 6.39625 310.985 5.97408L311.18 6.17672V7.27436C311.18 7.27436 312.435 4.66442 314.258 4.66442V7.86352C314.258 7.86352 312.025 8.25191 311.197 10.2708V15.9954C311.197 15.9954 311.197 16.9842 312.006 17.4721ZM289.762 13.8077V14.0441L284.551 16.5358V16.1136C284.551 16.1136 285.141 15.32 285.141 13.8077V6.40376C285.141 6.40376 285.023 5.35678 284.137 4.78263L287.814 3.08645C287.814 3.08645 288.454 2.7337 288.741 2.30966L288.943 2.5123V3.60994C288.943 3.60994 290.199 1 292.02 1V4.1991C292.02 4.1991 289.777 4.58749 288.96 6.6064V12.331C288.962 12.331 288.962 13.3179 289.762 13.8077ZM276.22 20.3691L269.096 23.7295V23.2905C269.096 23.2905 269.998 22.5812 269.998 20.082V7.77158C269.998 7.77158 269.872 6.08291 268.776 6.20112V5.91404L276.095 2.55358C279.258 1.10132 283.895 2.06386 283.895 6.91786V8.72474C283.894 14.0441 280.42 18.3858 276.22 20.3691ZM253.193 55.6286C253.193 55.6286 252.611 55.7881 252.485 55.9813C252.358 56.1765 252.131 56.1427 251.844 56.1765C251.558 56.2121 251.558 56.623 251.17 56.623C250.789 56.623 250.401 56.7262 250.31 57.0471C250.208 57.3679 249.796 57.655 249.373 57.7132C248.96 57.7807 248.479 57.655 248.994 57.3323C249.51 57.0096 249.052 56.7844 249.052 56.623C249.052 56.4635 249.12 56.0489 249.373 55.9494C249.635 55.8556 250.208 55.3077 250.208 55.3077C250.208 55.3077 250.403 55.0207 250.083 54.9869C249.762 54.9531 249.536 54.895 249.442 55.1145C249.35 55.3415 248.801 56.3041 248.801 56.3041C248.801 56.3041 248.093 56.2121 247.967 56.6587C247.842 57.1052 247.486 57.4936 247.327 57.5537C247.167 57.6212 246.972 57.3942 246.719 57.5893C246.466 57.7845 246.399 57.2084 246.146 57.5293C245.884 57.8501 245.31 57.8164 245.31 57.8164C245.31 57.8164 245.563 56.9139 245.243 57.2328C244.922 57.5537 244.315 58.0359 243.894 58.0096C243.48 57.9758 243.253 58.0359 243.094 58.2291C242.934 58.4224 242.393 58.2629 242.393 58.2629L242.003 57.8745C242.003 57.8745 242.483 57.5537 242.644 57.3004C242.805 57.0471 243.126 56.533 243.285 56.2459C243.444 55.9513 243.41 55.6305 243.731 55.5367C244.051 55.4353 244.119 55.1483 244.119 54.8612C244.119 54.576 243.639 54.6079 243.478 54.7936C243.478 54.7936 243.478 54.4127 243.764 54.1519C244.051 53.8986 244.827 53.165 245.08 52.9023C245.333 52.649 245.434 52.649 245.434 52.938C245.434 53.2232 245.492 53.7729 245.788 53.7729C246.075 53.7729 246.395 53.5102 246.463 53.2232C246.523 52.938 247.104 52.2963 246.843 52.1011C246.59 51.906 246.27 51.9736 246.142 52.2269C246.007 52.4877 245.629 52.3601 245.947 52.0073C246.268 51.6527 246.555 51.1367 246.682 50.8834C246.808 50.6207 247.07 50.3693 247.609 50.2417C248.159 50.1066 250.401 49.5325 251.042 49.1779C251.683 48.8251 253.225 47.8607 254.473 47.4817C255.721 47.0933 255.434 46.9319 256.328 46.84C257.23 46.7387 257.998 46.1983 258.477 45.8756C258.957 45.5547 259.371 45.202 259.371 45.5547V45.6148C259.371 45.6148 259.6 45.2339 260.239 44.8117C260.88 44.397 261.807 44.2038 262.354 44.2038C262.901 44.2038 263.029 44.11 263.222 43.9167C263.407 43.7216 263.73 43.564 263.863 43.851C263.988 44.1362 264.47 43.9167 264.689 43.7572C264.918 43.5959 265.077 43.3688 264.884 43.1737C264.689 42.9879 264.47 42.5658 264.689 42.472C264.918 42.3706 265.178 42.3706 265.178 42.6333C265.178 42.8866 265.366 43.3688 265.559 43.3332C265.753 43.3088 265.718 42.4063 266.106 42.6333C266.486 42.8528 267.033 42.532 267.607 42.3462C268.189 42.1511 268.669 41.5113 268.703 41.9935C268.727 42.4738 269.276 41.8584 269.538 41.697C269.791 41.5375 270.112 40.6763 270.625 40.9277C271.139 41.1904 271.139 41.2824 270.82 41.5357C270.5 41.7984 270.466 42.2111 270.5 42.6333C270.526 43.048 270.659 43.0123 271.141 42.8284C271.622 42.6333 274.665 41.3518 274.952 41.1904C275.239 41.0309 277.195 40.0665 277.195 40.0665C277.195 40.0665 277.481 39.9652 277.354 39.6781C277.228 39.3911 277.262 39.0045 276.966 38.9689C276.679 38.9426 276.2 38.361 276.486 37.845C276.781 37.3309 276.942 36.9838 276.942 37.6255C276.942 38.269 277.161 38.361 277.421 38.0739C277.674 37.7868 277.836 37.7193 277.961 37.9801C278.087 38.2334 278.248 38.0382 278.443 37.8788C278.638 37.7174 278.922 37.8187 279.084 38.0045C279.243 38.1996 279.378 37.9463 279.438 37.6836C279.505 37.4284 279.698 36.3984 280.365 36.5259C281.04 36.661 281.772 36.661 281.772 36.4002C281.772 36.1469 281.611 35.9199 281.864 35.9199C282.117 35.9199 282.344 36.1469 282.278 36.6873L282.758 36.661V37.5898L288.947 34.796C288.947 34.796 289.554 34.6703 289.395 33.9929C289.236 33.3156 289.335 33.4788 289.075 33.4526C288.822 33.4188 288.501 32.9047 288.728 32.6176C288.947 32.323 289.108 31.747 289.234 32.1617C289.369 32.5838 289.588 33.1336 289.588 33.1336C289.588 33.1336 289.85 33.5482 290.036 32.839C290.231 32.1373 290.388 31.7845 290.744 31.5218C291.096 31.2685 291.638 31.0753 291.773 30.8801C291.898 30.6925 291.992 30.3979 292.312 30.533C292.633 30.6587 292.472 30.8182 292.187 31.0134C291.9 31.201 291.419 31.6569 291.705 31.8746C291.992 32.1035 292.119 32.1373 292.253 31.9778C292.38 31.8164 292.539 31.7489 292.539 32.1373C292.539 32.5182 292.505 32.9985 292.893 32.9985C293.272 32.9985 293.467 32.7133 293.568 32.3249C293.66 31.944 293.628 31.5556 294.016 31.9102C294.394 32.263 294.336 31.8164 294.336 31.8164C294.336 31.8164 294.394 31.428 294.85 31.5218C295.296 31.6232 296.098 31.4956 296.384 31.2685C296.671 31.0396 297.767 30.2722 297.767 30.2722C297.767 30.2722 298.215 29.9176 298.374 30.4317C298.374 30.4317 298.569 30.1109 298.755 30.1109C298.949 30.1109 298.755 29.3097 299.051 29.8576C299.337 30.3979 300.424 28.9869 301.968 28.7937C301.968 28.7937 302.382 28.5742 302.541 28.8612C302.701 29.1483 302.896 28.3809 303.375 28.5404C303.855 28.7018 303.891 28.1876 304.37 28.1614C304.852 28.1257 305.972 28.0676 305.972 27.5197C305.972 26.9793 305.905 26.7842 305.676 26.7504C305.457 26.7166 305.517 26.4652 305.871 26.3376C306.225 26.2025 306.259 27.0037 306.385 27.4596C306.512 27.9081 306.671 27.5872 306.9 27.3583C307.127 27.1388 308.307 26.2701 308.755 26.3958C309.21 26.5215 309.555 26.4295 309.692 26.8761C309.817 27.3245 310.012 26.8761 310.012 26.6585C310.012 26.4295 309.877 25.3732 310.458 25.1462C311.032 24.9172 311.193 24.951 311.453 25.1799C311.706 25.3995 311.834 25.1462 311.993 25.7203C312.152 26.3038 312.506 26.0412 312.795 25.8817C313.089 25.7203 314.017 24.8591 314.59 24.8591C315.173 24.8591 315.012 24.5964 315.012 24.5964C315.012 24.5964 315.012 24.1498 315.491 24.632C315.973 25.1124 315.778 24.8947 316.226 24.6658C316.674 24.4388 317.127 23.8628 317.221 24.4388C317.313 25.0223 317.635 24.7915 317.862 24.4125C318.09 24.0241 318.09 23.4406 318.755 23.2211C319.43 22.994 320.266 22.707 320.391 22.4781C320.526 22.2585 320.654 22.1309 320.905 22.1309C321.167 22.1309 321.452 22.0634 321.452 21.8101C321.452 21.5474 321.512 21.1928 321.738 21.675C321.965 22.1572 322.312 22.8983 321.351 23.2548C320.389 23.6076 319.621 23.6339 319.301 23.6339C318.98 23.6339 318.66 23.54 318.855 23.9885L319.301 25.0186C319.301 25.0186 318.433 24.951 318.306 25.3038C318.178 25.6584 317.699 26.4614 317.665 27.0018C317.631 27.5497 317.286 27.0675 317.286 26.8742C317.286 26.681 316.865 25.8535 316.544 25.5908C316.224 25.3375 316.132 25.3375 316.031 25.6246C315.939 25.9117 315.458 25.5571 315.39 25.9117C315.332 26.2663 315.07 26.3939 314.749 26.3939C314.429 26.3939 313.822 26.8405 314.369 27.0675C314.909 27.2964 315.422 27.4822 315.422 27.4822C315.422 27.4822 316.063 27.7111 315.227 27.8368C314.391 27.9625 313.406 28.0319 313.018 27.9625C312.63 27.9043 311.989 27.8368 311.989 28.3772C311.989 28.925 311.864 29.1127 311.508 29.3059C311.163 29.5011 310.934 29.7863 310.934 29.7863C310.934 29.7863 310.166 29.3397 309.812 29.2459C309.458 29.1446 309.298 29.3397 309.265 29.6605C309.231 29.9814 309.298 30.2103 308.978 30.3022C308.658 30.3961 307.788 30.5574 307.376 30.7844C306.962 31.0115 306.381 31.1391 306.22 31.5519C306.22 31.5519 305.646 31.3323 305.326 31.7132C305.006 32.1016 303.724 32.8109 302.89 32.8109C302.056 32.8109 300.1 33.6139 299.457 34.0248L299.262 33.7396C299.262 33.7396 297.306 34.6346 297.306 34.8954C297.306 34.8954 296.572 34.7603 295.899 35.1487C295.224 35.5371 295.164 35.6309 295.417 36.5015C295.417 36.5015 294.205 36.3402 293.909 36.5935C293.622 36.8468 292.728 37.329 292.661 37.7512C292.601 38.164 292.213 37.8168 292.181 37.5898C292.146 37.3628 292.215 37.1676 292.603 37.0419C292.983 36.9143 292.788 36.5259 292.502 36.5259C292.215 36.5259 291.093 36.8468 290.866 37.0419C290.647 37.2371 290.131 37.4303 290.032 37.1695C289.938 36.9143 289.524 37.0419 289.367 37.3647C289.206 37.6855 288.659 38.0063 289.232 38.1996C289.815 38.3947 290.581 38.5523 290.742 38.4266C290.902 38.3009 291.383 37.4303 291.383 37.7849C291.383 38.1396 291.224 38.6462 290.87 38.8732C290.516 39.1021 290.388 38.6199 289.528 38.7137C289.528 38.7137 289.234 39.0665 289.234 39.3554C289.234 39.3554 288.593 39.7438 288.432 39.9296C288.273 40.1247 287.791 39.7119 287.538 39.6444C287.276 39.5843 286.83 39.4492 286.577 39.7119C286.314 39.9652 286.637 40.2523 286.314 40.3855C285.994 40.5112 285.614 41.121 284.907 41.1548C284.206 41.1886 282.664 41.6351 282.438 41.7608C282.218 41.8884 281.772 42.0479 281.772 41.5075C281.772 40.9596 281.351 41.1191 281.291 41.4738C281.223 41.8265 281.257 42.5038 280.717 42.7571C280.178 43.0104 279.629 42.8829 279.376 43.0442C279.115 43.2037 277.706 44.2338 277.386 44.3952C277.065 44.5565 273.541 46.354 267.831 48.6581L267.511 48.3373C267.569 48.4255 260.462 52.7991 253.193 55.6286Z" fill="#7B002B"/>
<path d="M275.673 26.195V31.8952C275.984 31.944 276.304 31.9797 276.608 31.8952C278.126 31.4975 278.8 29.9026 278.8 28.3471V25.8648C278.8 24.876 278.16 24.2268 277.461 24.2343C276.514 24.253 276.035 25.1649 275.673 26.195ZM267.089 30.1296L264.23 31.5387C264.307 30.6606 264.887 29.5799 265.721 29.1652C266.22 28.9232 267.054 28.8462 267.089 30.1296ZM274.382 18.2489V6.66645C278.74 3.06019 279.449 8.41516 279.391 10.526C279.316 13.5975 278.21 17.2526 274.382 18.2489ZM302.629 13.8846L299.779 15.2937C299.847 14.4156 300.43 13.3273 301.271 12.922C301.769 12.6687 302.603 12.5937 302.629 13.8846ZM287.714 20.6974V26.3977C288.027 26.4558 288.338 26.4821 288.642 26.4052C290.159 25.9999 290.841 24.405 290.841 22.8496V20.3691C290.841 19.3728 290.201 18.7217 289.502 18.7311C288.557 18.748 288.066 19.6674 287.714 20.6974Z" fill="white"/>
<path d="M313.726 16.1548L313.885 16.0798L313.642 15.5563L314.047 15.3705C314.3 15.2523 314.333 15.5131 314.425 15.6482L314.519 15.7908L314.714 15.6989C314.594 15.6238 314.603 15.5901 314.519 15.4381C314.401 15.2355 314.391 15.2092 314.223 15.1923C314.307 15.0403 314.324 14.9653 314.247 14.8133C314.105 14.5356 313.902 14.5844 313.717 14.6688L313.17 14.9221L313.726 16.1548Z" fill="#7B002B"/>
<path d="M313.786 14.8133C313.878 14.772 314.039 14.7195 314.114 14.9465C314.174 15.1079 314.08 15.1829 313.97 15.2336L313.582 15.4137L313.387 14.9897L313.786 14.8133Z" fill="white"/>
</g>
<g clip-path="url(#clip3)">
<path d="M1006.96 30.2813C1007.03 30.2947 1007.1 30.3072 1007.17 30.3197L1006.96 30.2813ZM1007.53 30.3773C1007.62 30.3896 1007.7 30.4004 1007.78 30.4113L1007.53 30.3773ZM1008.15 30.4504C1008.23 30.4577 1008.31 30.4646 1008.39 30.4707L1008.15 30.4504ZM1008.47 30.4766C1008.54 30.4816 1008.61 30.4856 1008.68 30.4891L1008.47 30.4766ZM1008.77 30.4943C1008.86 30.4978 1008.94 30.5009 1009.02 30.5035L1008.77 30.4943ZM1009.1 30.5044C1009.28 30.5092 1009.46 30.5094 1009.64 30.5049L1009.1 30.5044ZM1009.72 30.5035C1009.8 30.501 1009.89 30.4978 1009.97 30.4938L1009.72 30.5035ZM1010.05 30.4901C1010.12 30.486 1010.2 30.4816 1010.27 30.4766L1010.05 30.4901ZM1010.34 30.4714C1010.42 30.4655 1010.5 30.4589 1010.58 30.4516L1010.34 30.4714ZM1010.98 30.4068C1011.04 30.3997 1011.1 30.3919 1011.16 30.3825L1010.98 30.4068ZM1022.02 10.1609C1021.95 10.1259 1021.89 10.0941 1021.82 10.0656L1022.02 10.1609ZM1021.36 9.9257C1021.28 9.90861 1021.19 9.89569 1021.11 9.88701L1021.36 9.9257ZM1037.07 22.161L1037.03 22.1674L1037.07 22.161ZM978.428 18.606C978.137 18.3395 977.916 18.006 977.784 17.6345C977.677 17.3243 977.537 16.9367 977.537 16.6076C977.544 15.1236 978.413 14.0214 979.348 13.5112C979.772 13.2795 979.93 13.1205 979.995 13.0388C979.964 13.0251 979.931 13.0167 979.897 13.0138C978.624 13.0138 977.972 12.5208 977.652 12.1034C977.348 11.7125 977.193 11.2086 977.193 10.6575C977.193 10.3897 977.231 10.1095 977.306 9.82284C977.664 9.2321 978.005 9.39441 978.214 9.69662C978.347 9.88583 979.258 10.5299 980.38 10.632C981.197 10.7094 981.637 11.1079 981.866 11.4261C982.13 11.7946 982.231 12.2386 982.231 12.6163C982.231 12.7708 982.214 12.9159 982.18 13.045C982.057 13.5428 981.532 13.9915 980.799 14.5631L980.384 14.9066C979.776 15.4374 979.441 16.0281 979.441 16.5288C979.441 16.6538 979.463 16.7758 979.505 16.8883C979.523 16.9345 979.544 16.9791 979.569 17.0214C979.84 17.4802 980.608 17.768 981.723 17.3792C982.238 17.2011 983.229 16.5788 983.834 15.9803C984.547 15.2716 985.497 15.1015 986.413 15.0293C987.207 14.9696 987.696 14.7754 988.04 14.3895C989.057 13.2465 990.036 13.0858 990.952 13.0179C991.303 12.991 991.322 12.966 991.367 12.9044C991.872 12.2337 992.391 11.8786 992.857 11.672C993.211 11.5146 993.535 11.4429 993.801 11.3848L994.123 11.3058L994.204 11.2775C994.714 11.1138 995.108 10.9781 996.146 10.2789L996.19 10.251L996.19 10.2506L996.234 10.2234L996.234 10.2232L996.278 10.1975L996.279 10.1972L996.323 10.1722L996.323 10.172L996.367 10.1489L996.369 10.1484L996.412 10.1258L996.414 10.1253L996.457 10.1041L996.459 10.1036L996.503 10.0833L996.505 10.0823L996.549 10.0639L996.551 10.0632L996.595 10.0451L996.597 10.0446L996.642 10.0281L996.644 10.0269L996.688 10.0113L996.734 9.99576L996.737 9.99506L996.781 9.98114L996.784 9.98043L996.828 9.96769L996.831 9.96698L996.875 9.95495L996.878 9.95401L996.922 9.94363L996.926 9.94268L996.969 9.93278L996.973 9.93183L997.017 9.92287L997.021 9.92192L997.065 9.9139L997.069 9.91319L997.112 9.90588L997.117 9.90541L997.16 9.89904L997.164 9.8981L997.208 9.89314L997.212 9.8922L997.255 9.88748L997.26 9.88724L997.303 9.88323L997.308 9.88276L997.351 9.87969L997.356 9.87922L997.398 9.87663L997.403 9.87639L997.446 9.8745L997.494 9.87309H997.499L997.542 9.87262H997.595L997.637 9.87309L997.642 9.87332H997.647C997.677 9.87403 997.707 9.87592 997.737 9.87757L997.779 9.88017L997.785 9.88064L997.826 9.8837L997.832 9.88418L997.873 9.88819L997.879 9.88889L997.92 9.8929L997.927 9.89338L997.967 9.89833L997.974 9.89927L998.014 9.90423L998.021 9.90541L998.06 9.91131L998.067 9.91249L998.107 9.91862L998.114 9.92004L998.153 9.92688L998.16 9.92806L998.199 9.93513L998.206 9.93679C998.268 9.94835 998.329 9.96203 998.389 9.97666L998.427 9.98609L998.434 9.98821C998.495 10.0038 998.554 10.0203 998.613 10.0378L998.648 10.0486L998.656 10.0512C998.773 10.0878 998.885 10.1291 998.995 10.1727L999.026 10.1854L999.066 10.202C1001.28 7.19567 1004.79 5.19534 1008.78 5.01439V5.01345C1008.98 5.00465 1009.17 5.00016 1009.37 5C1009.5 5.00009 1009.63 5.00205 1009.76 5.0059C1009.82 5.00802 1009.89 5.01062 1009.95 5.01321H1009.95C1010.02 5.01628 1010.08 5.01935 1010.15 5.02336C1014 5.25455 1017.4 7.19237 1019.59 10.0897C1019.9 9.98137 1020.24 9.90281 1020.59 9.87922L1020.6 9.87875L1020.63 9.87663L1020.67 9.87498L1020.68 9.8745L1020.68 9.87427L1020.72 9.87332L1020.73 9.87285L1020.76 9.87262L1020.77 9.87238L1020.8 9.87214H1020.81L1020.85 9.87238H1020.85L1020.9 9.87309L1020.93 9.8745L1020.94 9.87474L1020.97 9.87639L1020.98 9.87686L1021.02 9.87922L1021.02 9.87969L1021.06 9.88252L1021.07 9.883L1021.1 9.88654L1021.11 9.88724C1021.19 9.89591 1021.28 9.90882 1021.36 9.92593L1021.4 9.93348L1021.4 9.93466L1021.44 9.94339L1021.44 9.94433L1021.48 9.95377L1021.49 9.95495L1021.52 9.96486L1021.53 9.96604L1021.57 9.97666L1021.57 9.97784L1021.61 9.98939L1021.61 9.99057L1021.65 10.0031L1021.65 10.004L1021.69 10.0184L1021.73 10.0321L1021.73 10.0333L1021.77 10.0481L1021.78 10.0491L1021.81 10.0647L1021.82 10.0658C1021.88 10.0941 1021.95 10.1255 1022.02 10.1611L1022.02 10.1618L1022.06 10.1826L1022.06 10.1831L1022.1 10.2055L1022.1 10.2057L1022.14 10.2293L1022.14 10.2296L1022.18 10.2539V10.2541L1022.21 10.2791C1022.93 10.7637 1023.34 10.9772 1023.69 11.1166C1023.85 11.1796 1024 11.227 1024.16 11.2777L1024.24 11.306L1024.56 11.3851C1024.74 11.4238 1024.94 11.4684 1025.16 11.5396C1025.71 11.717 1026.36 12.0614 1026.99 12.9046C1027.04 12.9662 1027.06 12.9912 1027.41 13.0181C1028.33 13.0863 1029.3 13.2467 1030.33 14.3897C1030.67 14.7757 1031.15 14.9696 1031.95 15.0295C1032.87 15.1017 1033.82 15.2716 1034.53 15.9805C1035.13 16.579 1036.12 17.2014 1036.64 17.3795C1037.75 17.7683 1038.52 17.4804 1038.79 17.0216C1038.85 16.9249 1038.89 16.8185 1038.91 16.7059C1038.92 16.6475 1038.92 16.5883 1038.92 16.529C1038.92 16.0284 1038.59 15.4376 1037.98 14.9068L1037.91 14.8443L1037.56 14.5633C1036.83 13.9917 1036.31 13.543 1036.18 13.0452C1036.15 12.9162 1036.13 12.7711 1036.13 12.6166C1036.13 12.2386 1036.24 11.7949 1036.49 11.4264C1036.72 11.1081 1037.17 10.7096 1037.98 10.6323C1039.11 10.5301 1040.02 9.88606 1040.15 9.69686C1040.36 9.39465 1040.7 9.23234 1041.05 9.82307C1041.13 10.1097 1041.17 10.39 1041.17 10.6577C1041.17 11.2119 1041.01 11.7128 1040.71 12.1037C1040.39 12.521 1039.74 13.0141 1038.46 13.0141C1038.44 13.0141 1038.4 13.0266 1038.37 13.0391C1038.43 13.1209 1038.59 13.28 1039.01 13.5114C1039.95 14.0219 1040.82 15.1241 1040.83 16.6078C1040.83 16.9369 1040.69 17.3243 1040.58 17.6347C1040.46 17.9604 1040.28 18.2578 1040.04 18.5074C1040.01 18.5409 1039.97 18.5739 1039.94 18.6062C1039.41 19.0941 1038.53 19.477 1037.07 19.39C1036.92 19.3806 1036.76 19.3667 1036.61 19.3484C1036.57 20.0838 1036.37 20.9579 1036.09 21.3988C1036 21.5373 1035.98 21.6302 1035.98 21.6757C1035.98 21.6949 1035.98 21.7059 1035.98 21.714C1035.99 21.717 1036.63 22.0933 1036.63 22.0933L1036.74 22.1455C1036.74 22.1455 1036.8 22.1738 1036.8 22.1801C1036.81 22.1768 1037.02 22.1674 1037.02 22.1674L1037.07 22.1615L1037.07 22.161C1037.47 22.123 1038.08 21.9279 1038.34 22.6508C1038.41 22.8426 1038.45 23.0096 1038.49 23.1575C1038.57 23.46 1038.64 23.6846 1038.9 23.8886C1038.9 23.8886 1039.03 23.7763 1039.18 23.6442C1039.3 23.5428 1039.41 23.4389 1039.52 23.3326C1039.7 23.1436 1040.05 23.2396 1040.29 23.3326C1040.54 23.427 1040.85 23.6414 1041.07 23.7655C1041.29 23.8884 1041.41 24.0443 1041.47 24.2305C1041.54 24.4162 1041.69 24.5391 1041.93 24.662C1042.15 24.7894 1042.47 25.1975 1042.47 25.7484C1042.47 25.8328 1042.48 25.905 1042.51 25.9817C1042.52 26.0324 1042.54 26.0853 1042.58 26.1454C1042.89 26.777 1042.64 27.095 1042.46 27.229C1042.21 27.4116 1041.78 27.4871 1041.37 27.421L1041.38 27.5248L1040.78 27.446C1040.56 27.4175 1040.25 27.476 1040.07 27.5135L1040.03 27.5248C1039.61 27.6083 1039.06 27.4661 1038.75 26.9645C1038.74 26.9459 1038.72 26.9272 1038.71 26.9074C1038.56 26.6307 1038.31 26.3738 1038.19 26.3028C1038.02 26.3504 1037.74 26.4151 1037.41 26.3818C1037.11 26.3514 1036.76 26.2353 1036.41 25.9414C1036.35 25.8925 1036.29 25.8385 1036.23 25.78C1035.71 25.257 1035.02 25.1499 1034.58 25.2161L1034.32 25.2619C1033.79 25.3582 1033.12 25.4808 1032.51 25.1062C1032.35 25.013 1032.13 24.917 1031.92 24.8257C1031.36 24.5829 1030.78 24.3326 1030.7 23.8049C1030.69 23.7108 1030.59 23.5388 1030.5 23.4019C1030.43 23.2809 1030.35 23.1486 1030.28 23.0068C1030.22 22.8714 1030.18 22.7272 1030.18 22.5767C1029.99 22.6237 1029.81 22.6429 1029.62 22.6338C1029.55 22.6305 1029.48 22.6239 1029.42 22.6142L1029.17 22.5767C1028.77 22.5071 1027.91 22.3667 1027.64 22.4661C1027.09 22.6614 1025.38 22.7558 1024.92 22.6489C1024.92 22.6489 1024.74 22.6112 1024.58 22.5767C1024.42 22.7374 1024.25 22.8881 1024.07 23.0224C1024.41 23.041 1024.71 22.9985 1024.92 23.0518L1025.35 23.1651C1025.49 23.1245 1025.82 23.1292 1026.01 23.1465L1026.52 23.1842L1027.09 23.2394C1027.37 23.2948 1027.67 23.4142 1027.62 23.9559C1027.6 24.1229 1027.5 24.3591 1027.36 24.4978C1027.28 24.5827 1026.98 25.0175 1026.92 25.1543L1026.9 25.197C1026.78 25.4459 1026.6 25.6745 1026.1 25.6745C1026.03 25.6737 1025.97 25.6762 1025.91 25.6821C1025.89 25.7229 1025.85 25.7986 1025.85 25.7986C1025.74 26.0567 1025.57 26.416 1025.26 26.6239L1025.17 26.684C1024.92 26.8635 1024.5 27.1594 1023.86 26.9265L1023.64 26.8475C1023.08 26.646 1022.23 26.3438 1021.8 26.1105L1021.74 26.0775C1021.34 25.86 1021.25 25.8163 1021.11 25.8366L1021.03 25.8491C1020.72 25.8918 1020.15 25.969 1019.75 25.3103L1019.71 25.2532C1017.82 27.8388 1014.98 29.6896 1011.71 30.2938L1011.69 30.2968C1011.58 30.3171 1011.47 30.336 1011.36 30.3537L1011.31 30.3598L1011.16 30.3825C1011.1 30.3914 1011.04 30.3995 1010.98 30.407L1010.87 30.4207L1010.7 30.4393L1010.58 30.4518C1010.5 30.4591 1010.42 30.4658 1010.34 30.4717L1010.27 30.4766C1010.19 30.4816 1010.12 30.4863 1010.05 30.4901L1009.97 30.4943C1009.89 30.4983 1009.8 30.5014 1009.72 30.504L1009.63 30.5054C1009.45 30.5098 1009.27 30.5097 1009.1 30.5049L1009.01 30.504C1008.93 30.5014 1008.85 30.4983 1008.77 30.4948L1008.67 30.4893C1008.61 30.4856 1008.54 30.482 1008.47 30.4768L1008.38 30.4712C1008.3 30.465 1008.22 30.4582 1008.14 30.4509L1008.03 30.4386L1007.87 30.4216L1007.78 30.4115C1007.7 30.4014 1007.62 30.39 1007.53 30.3773L1007.43 30.3627L1007.26 30.3353L1007.17 30.3202C1007.1 30.3077 1007.03 30.2954 1006.95 30.2817L1006.8 30.2513L1006.72 30.2355C1006.62 30.2129 1006.51 30.1904 1006.41 30.1654L1006.38 30.1591L1006.22 30.1194L1006.14 30.098C1006.04 30.073 1005.94 30.0461 1005.85 30.0192L1005.81 30.009C1002.94 29.1824 1000.48 27.3778 998.828 24.9809L998.611 25.3117C998.216 25.9704 997.641 25.893 997.331 25.8505L997.251 25.838C997.107 25.8177 997.015 25.8614 996.62 26.0789L996.557 26.1119C996.131 26.3452 995.286 26.6474 994.722 26.8489L994.5 26.928C993.858 27.1608 993.436 26.8645 993.189 26.6854L993.102 26.6253C992.787 26.4177 992.625 26.0584 992.509 25.8C992.509 25.8 992.471 25.7243 992.453 25.6835C992.389 25.6776 992.325 25.6751 992.26 25.6759C991.759 25.6759 991.581 25.4473 991.466 25.1984L991.445 25.1557C991.377 25.0189 991.08 24.5841 990.998 24.4992C990.86 24.3607 990.761 24.1243 990.745 23.9573C990.693 23.4156 990.992 23.2963 991.266 23.2408L991.842 23.1856L992.347 23.1479C992.535 23.1306 992.871 23.1259 993.008 23.1665L993.439 23.0533C993.645 22.9999 993.949 23.0424 994.289 23.0238C994.108 22.8872 993.937 22.7383 993.777 22.5781C993.613 22.6126 993.442 22.6503 993.442 22.6503C992.972 22.7572 991.266 22.6628 990.726 22.4675C990.452 22.3682 989.596 22.5083 989.185 22.5781L988.939 22.6156C988.687 22.6542 988.43 22.6414 988.184 22.5781C988.171 22.8865 988.004 23.1665 987.86 23.4034C987.776 23.5402 987.671 23.7122 987.658 23.8063C987.584 24.3341 986.999 24.5844 986.442 24.8271C986.225 24.9184 986.008 25.0144 985.853 25.1076C985.242 25.4823 984.572 25.3596 984.037 25.2633L983.778 25.2176C983.346 25.1513 982.656 25.2584 982.132 25.7814C981.331 26.5786 980.534 26.4033 980.171 26.3042C980.05 26.3752 979.803 26.6321 979.646 26.9088C979.343 27.4571 978.765 27.6128 978.329 27.5262L978.285 27.5149C978.106 27.4774 977.808 27.4189 977.579 27.4474L976.983 27.5262L976.99 27.4224C976.582 27.4885 976.149 27.4128 975.904 27.2304C975.723 27.0964 975.47 26.7784 975.79 26.1468C975.864 25.9954 975.889 25.8902 975.889 25.7498C975.889 25.1987 976.209 24.7908 976.433 24.6634C976.668 24.5405 976.823 24.4176 976.886 24.2319C976.947 24.0458 977.068 23.8898 977.288 23.7669C977.506 23.6428 977.816 23.4284 978.064 23.334C978.312 23.2411 978.654 23.145 978.84 23.334C979.029 23.5166 979.459 23.8898 979.459 23.8898C979.855 23.5855 979.817 23.2347 980.022 22.6517C980.278 21.9289 980.891 22.124 981.289 22.162L981.334 22.1683C981.334 22.1683 981.549 22.1778 981.555 22.1811C981.566 22.1747 981.626 22.1464 981.626 22.1464L981.726 22.0943C981.726 22.0943 982.368 21.718 982.375 21.7149C982.378 21.7071 982.378 21.6958 982.378 21.6767C982.378 21.6312 982.362 21.5382 982.275 21.3997C981.99 20.9586 981.788 20.0847 981.751 19.3494C981.648 19.3616 981.548 19.3718 981.45 19.3796C979.894 19.5041 978.969 19.1116 978.428 18.606Z" fill="#F8EE3F"/>
<path d="M982.259 18.8123C982.259 18.8123 982.129 20.0638 982.695 21.1667C982.695 21.1667 983.114 21.7589 982.679 22.1392L981.813 22.6412C981.813 22.6412 981.696 22.7275 981.31 22.6983C981.31 22.6983 980.776 22.5664 980.598 22.8016C980.598 22.8016 980.443 23.2539 980.249 23.6266C980.249 23.6266 979.854 24.5302 979.202 24.8196C979.202 24.8196 978.682 24.9386 978.524 25.3884C978.524 25.3884 978.356 25.7041 978.02 25.718C978.02 25.718 977.77 25.7973 977.604 26.3538C977.604 26.3538 977.513 26.7138 977.518 26.9898C977.518 26.9898 977.945 26.9339 978.224 27.0344C978.224 27.0344 978.908 27.2637 979.215 26.7013C979.215 26.7013 979.806 25.6914 980.244 25.8433C980.244 25.8433 981.125 26.1372 981.748 25.496C981.748 25.496 982.602 24.5649 983.809 24.7564C983.809 24.7564 985.169 25.031 985.593 24.7182C985.593 24.7182 986.451 24.2711 986.773 24.1603C986.773 24.1603 987.166 24.0449 987.207 23.6151C987.207 23.6151 987.446 23.0104 987.62 22.8089L986.972 22.8016C986.972 22.8016 986.384 23.7868 985.386 24.0838C985.386 24.0838 984.841 24.3013 983.745 24.1246C983.745 24.1246 982.172 23.7693 980.791 25.2573C980.791 25.2573 980.602 25.5293 980.332 25.4205C980.332 25.4205 981.096 24.1223 982.772 23.8146C982.772 23.8146 983.32 23.6983 983.778 23.7724C983.778 23.7724 986.035 23.8385 987.082 21.622C987.082 21.622 986.969 19.7323 987.469 19.2848C987.469 19.2848 987.662 19.2258 987.623 19.5913C987.623 19.5913 987.28 21.5708 987.925 21.9542C987.925 21.9542 988.299 22.2477 988.992 22.1392C988.992 22.1392 990.043 21.8889 990.896 22.0347C990.896 22.0347 992.209 22.3454 993.337 22.2017C993.337 22.2017 993.044 21.7544 993.102 21.2196C993.102 21.2196 993.263 20.8367 993.449 21.083C993.449 21.083 993.883 22.5131 995.069 22.9422C995.069 22.9422 996.129 23.327 996.111 24.6672C996.111 24.6672 995.949 24.851 994.544 25.3488C994.544 25.3488 994.019 25.5142 993.85 25.123C993.85 25.123 993.173 23.6769 992.583 23.7215L991.476 23.8111C991.476 23.8111 991.098 23.9076 991.376 24.2096C991.376 24.2096 991.755 24.7123 991.91 25.0124C991.91 25.0124 991.955 25.2688 992.312 25.2143C992.312 25.2143 992.806 24.9702 993.084 25.8869C993.084 25.8869 993.339 26.3453 993.771 26.4918C993.771 26.4918 994.175 26.6263 994.554 26.4142C994.554 26.4142 996.383 25.7447 996.701 25.5073C996.701 25.5073 997.097 25.2865 997.41 25.3927C997.41 25.3927 997.959 25.5232 998.185 25.0914L998.752 24.2169C998.752 24.2169 998.876 24.0015 998.859 23.7309C998.859 23.7309 998.91 23.4629 998.684 23.1904C998.684 23.1904 998.469 22.9646 998.436 22.8011L998.032 21.8542C998.032 21.8542 997.868 21.6013 997.688 21.4972L997.149 21.5366C997.149 21.5366 997.52 22.4827 997.792 22.8681C997.792 22.8681 998.16 23.4292 998.141 23.7859C998.141 23.7859 998.116 24.0359 998.018 24.1402C998.018 24.1402 997.893 24.3389 997.843 24.4353C997.843 24.4353 997.68 24.7892 997.547 24.8678C997.547 24.8678 997.317 25.0032 997.262 25.0086C997.262 25.0086 997.162 25.0362 997.236 24.8579C997.236 24.8579 997.538 24.2235 997.518 23.8842C997.518 23.8842 997.577 23.5308 997.326 23.3239C997.326 23.3239 996.739 22.3989 996.654 22.1224C996.654 22.1224 996.47 21.7525 996.372 21.689C996.372 21.689 996.167 21.4199 996.498 21.2939C996.498 21.2939 997.324 21.108 997.471 21.007C997.471 21.007 997.868 20.8872 998.126 20.0626C998.126 20.0626 998.481 19.101 998.476 18.5075C998.476 18.5075 999.172 19.8456 998.062 21.2064C998.062 21.2064 998.94 21.4647 999.304 21.2064C999.304 21.2064 1000.4 21.0469 1000.61 20.9888C1000.61 20.9888 1000.88 20.9225 1000.73 21.1172C1000.73 21.1172 1000.4 21.5852 1000.37 21.8919C1000.37 21.8919 1000.35 22.1361 1000.15 22.2791C1000.15 22.2791 999.525 22.7134 999.471 23.1293C999.471 23.1293 999.338 23.5297 999.612 23.4339C999.612 23.4339 999.985 23.2619 1000.12 23.4351C1000.12 23.4351 1000.15 23.4532 1000.01 23.6139C1000.01 23.6139 999.638 23.938 999.61 24.3731C999.61 24.3731 999.679 24.8751 999.811 25.0365C999.811 25.0365 999.979 25.2691 1000.25 25.1952C1000.25 25.1952 1000.32 25.1384 1000.44 25.1766C1000.44 25.1766 1000.57 25.1761 1000.92 25.0577C1000.92 25.0577 1001.44 24.915 1001.61 24.8536C1001.61 24.8536 1002.28 24.6172 1002.6 24.6337C1002.6 24.6337 1002.82 24.6104 1003.09 24.6644C1003.09 24.6644 1003.92 24.7583 1004.47 24.1494C1004.47 24.1494 1004.89 23.817 1005.03 24.1397C1005.03 24.1397 1006.04 25.4892 1007.67 25.1337C1007.67 25.1337 1006.37 24.601 1006.04 23.8755C1006.04 23.8755 1005.99 23.2595 1005.31 22.4041C1005.31 22.4041 1005.1 22.1203 1005.3 22.0465C1005.3 22.0465 1005.42 21.9599 1005.67 22.2135C1005.67 22.2135 1006.32 22.8318 1006.55 23.3978C1006.55 23.3978 1007.35 24.6073 1008.51 24.2008C1008.51 24.2008 1007.6 23.8514 1007.18 23.1998C1007.18 23.1998 1006.91 22.318 1006.03 21.6619C1006.03 21.6619 1005.99 20.6708 1005.58 20.1138C1005.58 20.1138 1005.37 19.1831 1005.31 18.9656C1005.31 18.9656 1005.09 18.1482 1005.09 17.9224C1005.09 17.9224 1005.16 16.8546 1004.47 16.0235C1004.47 16.0235 1004.01 15.1343 1003.29 14.5148C1003.29 14.5148 1002.74 13.8403 1002.34 13.4272C1002.34 13.4272 1001.8 12.8011 1000.63 11.9841C1000.63 11.9841 1000.1 11.6008 999.716 11.1886C999.716 11.1886 997.656 9.71015 996.168 10.8961C996.168 10.8961 995.141 11.5932 994.282 11.8091C994.282 11.8091 992.519 12.0139 991.767 13.2347C991.767 13.2347 991.702 13.4603 990.991 13.5461C990.991 13.5461 989.43 13.3581 988.28 14.8897C988.28 14.8897 987.746 15.4097 986.689 15.5361C986.689 15.5361 984.964 15.3601 983.841 16.6786C983.841 16.6786 981.008 19.1433 979.319 17.5449C979.319 17.5449 978.444 16.7185 979.444 15.2221C979.444 15.2221 980.079 14.4582 981.162 13.6601C981.162 13.6601 982.04 13.0429 981.638 12.0835C981.638 12.0835 981.425 11.1563 980.108 11.1318C980.108 11.1318 978.457 10.8135 977.789 9.98169C977.789 9.98169 977.043 12.6015 979.97 12.5579C979.97 12.5579 980.733 12.6704 980.467 13.2744C980.467 13.2744 980.093 13.791 979.591 13.9791C979.591 13.9791 978.708 14.3643 978.308 15.6467C978.308 15.6467 977.417 17.8917 979.593 18.7583C980.43 19.0468 981.397 18.9618 982.259 18.8123ZM978.07 24.1025C978.188 24.0041 978.361 23.9486 978.514 23.9845C978.861 24.0588 978.651 24.358 978.651 24.358C978.511 24.6196 978.053 25.061 978.053 25.061C977.646 25.3651 977.323 25.003 977.323 25.003C977.022 24.7064 977.414 24.563 977.414 24.563C977.643 24.4705 978.07 24.1025 978.07 24.1025ZM977.197 25.5057C977.197 25.5057 977.323 25.5989 977.256 25.7829C977.256 25.7829 976.933 26.665 976.948 26.9611C976.948 26.9611 976.233 27.0885 976.134 26.7365C976.134 26.7365 976.114 26.6006 976.231 26.4036C976.231 26.4036 976.352 26.2198 976.384 25.8836C976.384 25.8836 976.373 25.0376 976.923 25.2618C977.032 25.3226 977.118 25.4111 977.197 25.5057ZM1002.4 23.7156C1002.28 23.7125 1002.24 23.6665 1002.26 23.5282C1002.34 23.1439 1002.65 22.9781 1002.65 22.9781C1003.23 22.6327 1003.3 22.9786 1003.3 22.9786C1003.41 23.5955 1002.92 23.6731 1002.92 23.6731C1002.82 23.7066 1002.4 23.7156 1002.4 23.7156ZM1004.15 20.9605C1004.16 20.6711 1004.19 20.0277 1003.89 19.7979C1003.78 19.7116 1003.35 19.2414 1003.35 19.2414C1003.29 19.1275 1003.24 19.1204 1003.24 19.1204C1003.15 19.1119 1003.03 19.3176 1003.03 19.3176C1002.73 19.9076 1002.42 19.8357 1002.42 19.8357C1002.42 19.7281 1002.49 19.608 1002.49 19.608C1002.64 19.3214 1002.78 19.034 1002.93 18.746C1002.97 18.6436 1003.02 18.5072 1003.02 18.5072C1003.31 18.0498 1003.59 18.398 1003.59 18.398C1003.71 18.6403 1004.38 19.4297 1004.38 19.4297C1004.53 19.6042 1004.54 19.7918 1004.54 19.7918C1004.69 20.873 1004.15 20.9605 1004.15 20.9605ZM998.039 14.4337C997.949 14.2711 997.986 14.1053 998.077 13.9472C998.282 13.6334 998.474 13.9758 998.474 13.9758C999.183 14.9614 998.66 16.4371 998.66 16.4371C998.587 15.0789 998.039 14.4337 998.039 14.4337ZM1036.1 18.8123C1036.1 18.8123 1036.23 20.0638 1035.67 21.1667C1035.67 21.1667 1035.25 21.7589 1035.68 22.1392L1036.55 22.6412C1036.55 22.6412 1036.67 22.7275 1037.05 22.6983C1037.05 22.6983 1037.59 22.5664 1037.77 22.8016C1037.77 22.8016 1037.92 23.2539 1038.11 23.6266C1038.11 23.6266 1038.51 24.5302 1039.16 24.8196C1039.16 24.8196 1039.68 24.9386 1039.84 25.3884C1039.84 25.3884 1040.01 25.7041 1040.34 25.718C1040.34 25.718 1040.59 25.7973 1040.76 26.3538C1040.76 26.3538 1040.85 26.7138 1040.85 26.9898C1040.85 26.9898 1040.42 26.9339 1040.14 27.0344C1040.14 27.0344 1039.46 27.2637 1039.15 26.7013C1039.15 26.7013 1038.56 25.6914 1038.12 25.8433C1038.12 25.8433 1037.24 26.1372 1036.62 25.496C1036.62 25.496 1035.76 24.5649 1034.55 24.7564C1034.55 24.7564 1033.2 25.031 1032.77 24.7182C1032.77 24.7182 1031.91 24.2711 1031.59 24.1603C1031.59 24.1603 1031.2 24.0449 1031.16 23.6151C1031.16 23.6151 1030.92 23.0104 1030.74 22.8089L1031.39 22.8016C1031.39 22.8016 1031.98 23.7868 1032.98 24.0838C1032.98 24.0838 1033.52 24.3013 1034.62 24.1246C1034.62 24.1246 1036.19 23.7693 1037.57 25.2573C1037.57 25.2573 1037.76 25.5293 1038.03 25.4205C1038.03 25.4205 1037.27 24.1223 1035.59 23.8146C1035.59 23.8146 1035.04 23.6983 1034.59 23.7724C1034.59 23.7724 1032.33 23.8385 1031.28 21.622C1031.28 21.622 1031.39 19.7323 1030.89 19.2848C1030.89 19.2848 1030.7 19.2258 1030.74 19.5913C1030.74 19.5913 1031.08 21.5708 1030.44 21.9542C1030.44 21.9542 1030.06 22.2477 1029.37 22.1392C1029.37 22.1392 1028.32 21.8889 1027.47 22.0347C1027.47 22.0347 1026.15 22.3454 1025.03 22.2017C1025.03 22.2017 1025.32 21.7544 1025.26 21.2196C1025.26 21.2196 1025.1 20.8367 1024.91 21.083C1024.91 21.083 1024.48 22.5131 1023.29 22.9422C1023.29 22.9422 1022.23 23.327 1022.25 24.6672C1022.25 24.6672 1022.41 24.851 1023.82 25.3488C1023.82 25.3488 1024.34 25.5142 1024.51 25.123C1024.51 25.123 1025.19 23.6769 1025.78 23.7215L1026.89 23.8111C1026.89 23.8111 1027.27 23.9076 1026.99 24.2096C1026.99 24.2096 1026.61 24.7123 1026.45 25.0124C1026.45 25.0124 1026.41 25.2688 1026.05 25.2143C1026.05 25.2143 1025.56 24.9702 1025.28 25.8869C1025.28 25.8869 1025.02 26.3453 1024.59 26.4918C1024.59 26.4918 1024.19 26.6263 1023.81 26.4142C1023.81 26.4142 1021.98 25.7447 1021.66 25.5073C1021.66 25.5073 1021.27 25.2865 1020.95 25.3927C1020.95 25.3927 1020.41 25.5232 1020.18 25.0914L1019.61 24.2169C1019.61 24.2169 1019.49 24.0015 1019.51 23.7309C1019.51 23.7309 1019.45 23.4629 1019.68 23.1904C1019.68 23.1904 1019.9 22.9646 1019.93 22.8011L1020.33 21.8542C1020.33 21.8542 1020.5 21.6013 1020.68 21.4972L1021.22 21.5366C1021.22 21.5366 1020.84 22.4827 1020.57 22.8681C1020.57 22.8681 1020.2 23.4292 1020.22 23.7859C1020.22 23.7859 1020.25 24.0359 1020.35 24.1402C1020.35 24.1402 1020.47 24.3389 1020.52 24.4353C1020.52 24.4353 1020.68 24.7892 1020.82 24.8678C1020.82 24.8678 1021.05 25.0032 1021.1 25.0086C1021.1 25.0086 1021.2 25.0362 1021.13 24.8579C1021.13 24.8579 1020.83 24.2235 1020.85 23.8842C1020.85 23.8842 1020.79 23.5308 1021.04 23.3239C1021.04 23.3239 1021.63 22.3989 1021.71 22.1224C1021.71 22.1224 1021.89 21.7525 1021.99 21.689C1021.99 21.689 1022.2 21.4199 1021.87 21.2939C1021.87 21.2939 1021.04 21.108 1020.89 21.007C1020.89 21.007 1020.5 20.8872 1020.24 20.0626C1020.24 20.0626 1019.88 19.101 1019.89 18.5075C1019.89 18.5075 1019.19 19.8456 1020.3 21.2064C1020.3 21.2064 1019.42 21.4647 1019.06 21.2064C1019.06 21.2064 1017.97 21.0469 1017.75 20.9888C1017.75 20.9888 1017.48 20.9225 1017.64 21.1172C1017.64 21.1172 1017.97 21.5852 1017.99 21.8919C1017.99 21.8919 1018.02 22.1361 1018.22 22.2791C1018.22 22.2791 1018.84 22.7134 1018.89 23.1293C1018.89 23.1293 1019.03 23.5297 1018.75 23.4339C1018.75 23.4339 1018.38 23.2619 1018.25 23.4351C1018.25 23.4351 1018.21 23.4532 1018.35 23.6139C1018.35 23.6139 1018.73 23.938 1018.75 24.3731C1018.75 24.3731 1018.68 24.8751 1018.55 25.0365C1018.55 25.0365 1018.38 25.2691 1018.12 25.1952C1018.12 25.1952 1018.05 25.1384 1017.92 25.1766C1017.92 25.1766 1017.79 25.1761 1017.45 25.0577C1017.45 25.0577 1016.93 24.915 1016.75 24.8536C1016.75 24.8536 1016.09 24.6172 1015.76 24.6337C1015.76 24.6337 1015.55 24.6104 1015.28 24.6644C1015.28 24.6644 1014.45 24.7583 1013.9 24.1494C1013.9 24.1494 1013.48 23.817 1013.33 24.1397C1013.33 24.1397 1012.32 25.4892 1010.69 25.1337C1010.69 25.1337 1011.99 24.601 1012.33 23.8755C1012.33 23.8755 1012.37 23.2595 1013.05 22.4041C1013.05 22.4041 1013.26 22.1203 1013.06 22.0465C1013.06 22.0465 1012.94 21.9599 1012.69 22.2135C1012.69 22.2135 1012.04 22.8318 1011.81 23.3978C1011.81 23.3978 1011.01 24.6073 1009.85 24.2008C1009.85 24.2008 1010.76 23.8514 1011.19 23.1998C1011.19 23.1998 1011.45 22.318 1012.34 21.6619C1012.34 21.6619 1012.37 20.6708 1012.79 20.1138C1012.79 20.1138 1013 19.1831 1013.05 18.9656C1013.05 18.9656 1013.28 18.1482 1013.27 17.9224C1013.27 17.9224 1013.2 16.8546 1013.89 16.0235C1013.89 16.0235 1014.35 15.1343 1015.07 14.5148C1015.07 14.5148 1015.62 13.8403 1016.03 13.4272C1016.03 13.4272 1016.56 12.8011 1017.73 11.9841C1017.73 11.9841 1018.26 11.6008 1018.65 11.1886C1018.65 11.1886 1020.71 9.71015 1022.2 10.8961C1022.2 10.8961 1023.22 11.5932 1024.08 11.8091C1024.08 11.8091 1025.84 12.0139 1026.6 13.2347C1026.6 13.2347 1026.66 13.4603 1027.37 13.5461C1027.37 13.5461 1028.93 13.3581 1030.08 14.8897C1030.08 14.8897 1030.62 15.4097 1031.67 15.5361C1031.67 15.5361 1033.4 15.3601 1034.52 16.6786C1034.52 16.6786 1037.35 19.1433 1039.04 17.5449C1039.04 17.5449 1039.92 16.7185 1038.92 15.2221C1038.92 15.2221 1038.28 14.4582 1037.2 13.6601C1037.2 13.6601 1036.32 13.0429 1036.73 12.0835C1036.73 12.0835 1036.94 11.1563 1038.25 11.1318C1038.25 11.1318 1039.91 10.8135 1040.57 9.98169C1040.57 9.98169 1041.32 12.6015 1038.39 12.5579C1038.39 12.5579 1037.63 12.6704 1037.9 13.2744C1037.9 13.2744 1038.27 13.791 1038.77 13.9791C1038.77 13.9791 1039.65 14.3643 1040.05 15.6467C1040.05 15.6467 1040.95 17.8917 1038.77 18.7583C1037.93 19.0468 1036.97 18.9618 1036.1 18.8123ZM1040.29 24.1025C1040.18 24.0041 1040 23.9486 1039.85 23.9845C1039.5 24.0588 1039.71 24.358 1039.71 24.358C1039.85 24.6196 1040.31 25.061 1040.31 25.061C1040.72 25.3651 1041.04 25.003 1041.04 25.003C1041.34 24.7064 1040.95 24.563 1040.95 24.563C1040.72 24.4705 1040.29 24.1025 1040.29 24.1025ZM1041.17 25.5057C1041.17 25.5057 1041.04 25.5989 1041.11 25.7829C1041.11 25.7829 1041.43 26.665 1041.42 26.9611C1041.42 26.9611 1042.13 27.0885 1042.23 26.7365C1042.23 26.7365 1042.25 26.6006 1042.13 26.4036C1042.13 26.4036 1042.01 26.2198 1041.98 25.8836C1041.98 25.8836 1041.99 25.0376 1041.44 25.2618C1041.33 25.3226 1041.25 25.4111 1041.17 25.5057ZM1015.96 23.7156C1016.09 23.7125 1016.12 23.6665 1016.1 23.5282C1016.02 23.1439 1015.71 22.9781 1015.71 22.9781C1015.13 22.6327 1015.06 22.9786 1015.06 22.9786C1014.95 23.5955 1015.44 23.6731 1015.44 23.6731C1015.54 23.7066 1015.96 23.7156 1015.96 23.7156ZM1014.21 20.9605C1014.2 20.6711 1014.18 20.0277 1014.47 19.7979C1014.58 19.7116 1015.01 19.2414 1015.01 19.2414C1015.08 19.1275 1015.13 19.1204 1015.13 19.1204C1015.22 19.1119 1015.33 19.3176 1015.33 19.3176C1015.64 19.9076 1015.94 19.8357 1015.94 19.8357C1015.95 19.7281 1015.87 19.608 1015.87 19.608C1015.73 19.3214 1015.58 19.034 1015.43 18.746C1015.4 18.6678 1015.37 18.5881 1015.35 18.5072C1015.05 18.0498 1014.77 18.398 1014.77 18.398C1014.65 18.6403 1013.99 19.4297 1013.99 19.4297C1013.9 19.5323 1013.84 19.6581 1013.82 19.7918C1013.67 20.873 1014.21 20.9605 1014.21 20.9605ZM1020.32 14.4337C1020.41 14.2711 1020.38 14.1053 1020.29 13.9472C1020.08 13.6334 1019.89 13.9758 1019.89 13.9758C1019.18 14.9614 1019.7 16.4371 1019.7 16.4371C1019.78 15.0789 1020.32 14.4337 1020.32 14.4337Z" fill="#CC2729"/>
<path d="M968.013 34.8592V52.9401H971.672V38.3099H973.395C973.395 38.3099 976.086 38.1892 976.086 40.6318C976.086 43.0745 973.697 43.0136 973.697 43.0136H972.82V47.1755L976.479 52.9405H980.772L975.663 45.5476C975.663 45.5476 979.865 45.1857 979.865 40.6323C979.865 36.0796 976.69 34.8599 972.458 34.8599L968.013 34.8592ZM1021.5 43.3163C1021.5 43.3163 1023.1 42.0735 1023.1 39.7184C1023.1 37.362 1021.39 35.2378 1017.73 35.2378H1011.61V52.9403H1019.15C1019.15 52.9403 1024.55 52.8792 1024.55 48.0106C1024.55 45.1843 1023.45 44.1019 1021.5 43.3163ZM1018.55 49.8592H1015.27V38.3246H1017.03C1017.03 38.3246 1019.41 38.1462 1019.41 40.2192C1019.41 42.2922 1017.51 42.1094 1017.51 42.1094H1016.42V45.2169H1018.55C1019.11 45.2169 1020.89 45.487 1020.89 47.5291C1020.89 49.5707 1018.55 49.8592 1018.55 49.8592ZM1044.57 34.5037H1047.99V52.9403H1044.57V34.5037ZM1038.69 34.5037H1042.15V52.9403H1038.69V34.5037ZM1025.58 42.14H1029.09V48.3211C1029.09 48.3211 1029.21 50.4026 1031.18 50.4026C1033.14 50.4026 1033.11 48.3211 1033.11 48.3211V42.1693H1036.65V48.5329C1036.65 48.5329 1037.1 53.5082 1031.27 53.5082C1025.43 53.5082 1025.58 49.1359 1025.58 48.352V42.14ZM1002.33 34.5037V42.8641C1002.33 42.8641 1000.64 41.5677 998.702 41.5677C996.768 41.5677 993.502 42.9245 993.502 47.2059C993.502 51.4875 996.284 53.1168 998.672 53.1168C1001.06 53.1168 1002.39 51.5484 1002.39 51.5484V52.9408H1005.84V34.5039H1002.33V34.5037ZM999.67 50.1001C999.488 50.1001 997.221 50.1305 997.221 47.3566C997.221 44.582 999.7 44.4917 999.7 44.4917C999.7 44.4917 1002.48 44.582 1002.48 47.296C1002.48 50.01 999.851 50.1001 999.67 50.1001ZM986.608 41.5672C992.474 41.5672 992.232 47.2665 992.232 47.2665V48.1705H984.28C984.28 49.4667 985.368 50.5828 986.85 50.5828C988.331 50.5828 989.087 49.1656 989.087 49.1656L991.899 50.5524C990.599 52.5131 988.845 53.2963 986.88 53.2963C980.772 53.2963 980.652 48.2309 980.652 47.598C980.652 46.9643 980.743 41.5672 986.608 41.5672ZM984.34 46.0895H988.695C988.695 46.0895 988.513 44.0399 986.548 44.0399C984.583 44.0396 984.34 46.0895 984.34 46.0895Z" fill="#CC2729"/>
</g>
<path d="M514.721 38.851C511.744 36.9334 507.704 36.5969 501.189 38.4045C494.243 40.0367 491.927 41.083 488.886 38.9826C487.718 37.9508 487.299 36.2895 487.612 33.8965C488.337 29.9955 490.298 26.2414 493.78 22.0772C495.724 19.911 497.527 18.052 499.908 17.3055C501.733 16.8372 501.562 18.2713 501.342 18.4764C501.109 18.4764 500.717 18.5131 500.415 18.7105C500.169 18.9009 499.495 19.5157 499.459 20.3427C499.407 21.6087 500.717 21.3452 501.282 20.6501C501.891 19.8668 502.791 18.3668 502.083 16.9688C501.787 16.4712 501.274 16.1273 500.637 16.0102C498.457 15.8856 496.426 16.9249 494.552 18.0739C490.454 20.9208 487.176 24.8656 485.321 29.1836C484.252 31.7889 483.284 35.5209 484.734 38.5584C485.856 40.666 488.184 41.7855 490.962 41.5514C492.91 41.3467 495.266 40.717 496.851 40.3368C498.435 39.9559 506.546 37.1679 509.211 42.0204C509.211 42.0204 510.097 40.3001 512.312 40.2634C514.133 40.0954 516.759 40.7905 518.672 42.1954C518.035 41.237 516.228 39.8245 514.721 38.851Z" fill="#E61A27"/>
<path d="M502.016 22.5675C500.499 21.5722 497.45 23.475 495.008 26.7389C492.775 29.6666 491.81 33.0693 492.86 34.6428C494.421 36.4943 497.319 33.8012 498.551 32.3597L498.71 32.1912C499.548 31.291 500.196 30.2078 500.823 29.1684C500.823 29.1684 501.399 28.217 501.426 28.173C501.782 28.1074 502.211 28.0049 502.694 27.8658C502.687 27.8876 500.845 30.9834 501.033 32.52C501.092 32.9888 501.047 34.7013 502.719 35.2208C504.947 35.5943 506.727 33.8669 508.297 32.33C508.297 32.33 508.564 32.0741 508.715 31.928C508.677 32.0812 508.627 32.2857 508.627 32.2857C507.975 34.5545 508.854 35.0306 509.404 35.2062C511.067 35.6896 513.053 33.2743 513.059 33.2743C513.008 34.0351 512.857 34.6644 513.659 35.1695C514.416 35.4405 515.182 35.0273 515.765 34.6394C517.862 33.1612 519.552 30.8474 520.917 28.8475H520.046C520.036 28.8475 517.898 31.9463 516.51 32.6198C516.508 32.6198 516.255 32.7495 516.109 32.6469C515.929 32.4932 516 32.1735 516.111 31.9471C516.118 31.9324 521.472 22.6475 521.472 22.6475H518.944C518.944 22.6475 518.668 23.0942 518.646 23.1235C518.629 23.1089 518.588 23.0321 518.56 22.9953C516.994 20.8291 513.448 24.1611 510.778 28.0251C509.75 29.5109 508.441 31.1838 507.084 32.3913C507.084 32.3913 505.074 34.2341 504.215 32.9101C503.901 32.3538 503.998 31.5405 504.175 31.0064C505.175 28.1594 506.898 25.5757 508.859 24.0168C509.413 23.5853 510.015 23.4605 510.313 23.6435C510.598 23.8121 510.644 24.2289 510.464 24.5144C510.007 24.4998 509.641 24.6386 509.343 24.946C508.757 25.5608 508.554 26.1537 508.74 26.71C509.645 27.998 511.45 25.4511 511.363 23.8996C511.332 23.3433 511.035 22.8165 510.592 22.5601C509.932 22.1651 508.925 22.2674 508.273 22.5823C507.401 22.9115 506.02 24.0604 505.214 24.9534C504.199 26.0733 502.459 27.3173 501.914 27.178C502.092 26.7022 503.562 23.6944 502.016 22.5675ZM514.202 27.0171C514.694 26.3366 516.125 24.5142 516.474 24.2069C517.647 23.1746 518.116 23.6288 518.157 23.9506C517.062 25.9119 515.769 28.1588 514.554 30.1788C514.556 30.1716 514.174 30.7569 514.174 30.7569C513.637 31.5763 513.096 32.279 512.215 32.7692C512.089 32.8061 511.882 32.8208 511.744 32.7179C511.578 32.6081 511.513 32.4251 511.531 32.2348C511.584 31.6056 512.225 29.6812 514.202 27.0171ZM500.451 28.1953C500.451 28.1953 500.429 28.2614 500.419 28.283C500.416 28.283 499.316 30.0758 499.316 30.0758C498.653 30.9615 497.825 32.0742 496.789 32.6082C496.482 32.7106 496.058 32.7767 495.842 32.5061C495.384 31.9571 495.62 31.1959 495.812 30.5813L495.88 30.3617C496.43 28.8689 497.303 27.5513 498.153 26.3291C498.163 26.3219 498.187 26.3146 498.196 26.3146C498.198 26.3219 498.201 26.3219 498.203 26.3366C498.736 27.361 499.736 27.8365 500.483 28.0564C500.488 28.0564 500.493 28.0637 500.493 28.0784C500.493 28.1002 500.481 28.1297 500.451 28.1953ZM501.493 26.0805C501.488 26.0951 501.003 27.2075 501.003 27.2075C500.933 27.266 500.822 27.2368 500.695 27.2075L500.478 27.1707C499.794 26.9586 499.279 26.5048 499.12 25.9633C498.901 24.9094 499.801 24.0824 500.198 23.7825C500.579 23.5188 501.17 23.3798 501.514 23.6507C501.726 23.8996 501.806 24.2215 501.806 24.573C501.806 25.0485 501.659 25.5827 501.493 26.0805ZM533.447 29.476C533.203 28.9492 532.625 28.6125 532.008 28.649C530.006 28.8321 528.047 30.4787 527.019 32.8424C526.479 34.0574 526.185 35.0599 525.992 36.6553C526.614 35.9383 527.884 34.7601 529.325 34.116C529.325 34.116 529.522 32.5865 530.522 31.2252C530.9 30.6615 531.657 29.7541 532.507 29.9955C533.25 30.2444 532.989 32.301 532.002 34.2912C531.271 35.7551 530.153 37.2192 529.022 38.2289C528.022 39.0778 526.542 40.1024 525.248 39.3121C524.432 38.8293 524.016 37.819 524.104 36.5164C524.494 32.8207 526.176 29.6737 528.584 26.0877C531.066 22.7578 533.802 19.3401 537.489 17.5175C538.241 17.137 538.937 17.0492 539.539 17.2834C539.539 17.2834 536.078 19.1862 534.429 22.7065C534.009 23.5995 533.426 24.8067 534.013 25.8753C534.321 26.4314 534.866 26.4754 535.305 26.4461C537.327 25.9776 538.633 24.0895 539.7 22.3625C540.319 21.0525 540.869 19.7498 540.869 18.3007C540.869 18.1251 540.86 17.891 540.845 17.7152C541.811 17.2031 543.792 18.1104 543.792 18.1104C545.34 18.6229 548.636 21.1479 549.748 21.6307C550.29 21.0014 551.181 20.0501 551.683 19.5743L550.957 19.1278C549.794 18.4179 548.564 17.7445 547.354 17.0786C544.606 15.5785 542.37 16.1053 541.231 16.5152C540.784 16.6761 540.375 16.8152 540.375 16.8152C539.53 15.8931 538.145 15.9807 537.124 16.2297C533.452 17.2835 530.044 19.8522 526.389 24.3093C523.702 27.8003 522.036 30.8156 521.148 33.7941C520.463 35.7993 520.255 38.7486 521.926 40.4978C523.347 41.9831 525.231 41.6613 526.561 41.1273C529.444 39.7075 532.035 36.6482 533.326 33.1279C533.638 32.0815 533.983 30.6032 533.447 29.476ZM540.076 18.4472C539.694 22.8237 536.292 25.3927 535.45 25.5973C534.94 25.6996 534.07 25.4729 534.847 23.6362C535.991 21.1623 537.945 19.0621 540.041 17.9862C540.092 18.1692 540.09 18.286 540.076 18.4472ZM560.255 19.0032C558.425 20.0426 556.528 20.7157 554.232 20.4816C553.596 21.199 552.976 21.9381 552.405 22.6991C555.628 23.5188 559.045 21.6965 560.95 19.9622C562.966 18.213 564 16.0103 564 16.0103C564 16.0103 562.489 17.7373 560.255 19.0032ZM525.673 22.6477H523.272L521.918 24.8477H524.318L525.673 22.6477Z" fill="#E61A27"/>
<path d="M554.223 39.0547C553.965 39.2303 553.602 39.0953 553.737 38.6929C554.075 37.6683 555.418 35.5803 555.418 35.5803L559.157 28.9477H556.596C556.474 29.1477 556.214 29.6069 556.214 29.6069C556.095 29.4095 555.741 28.9706 555.595 28.8757C554.969 28.4802 554.051 28.6672 553.418 29.0257C550.664 30.636 548.655 33.8175 547.07 36.2986C547.07 36.2986 545.402 39.0566 544.476 39.2617C543.753 39.3203 543.828 38.3465 543.859 38.1196C544.138 36.48 544.788 34.9213 545.441 33.5088C546.772 32.5867 548.29 31.3792 549.669 30.0546C552.663 27.1928 555.187 23.9507 555.556 23.2262C555.556 23.2262 555.156 23.3068 554.685 23.3213C552.382 26.5341 547.668 31.2035 546.24 31.8986C546.873 30.376 550.962 23.109 554.442 19.6328L554.99 19.1057C555.837 18.2787 556.714 17.4298 557.398 17.2907C557.47 17.2834 557.563 17.2907 557.644 17.4593C557.674 18.1032 557.435 18.579 557.16 19.1205L556.774 19.911C556.774 19.911 557.32 19.8085 557.679 19.6911C558.095 18.9084 558.555 18.0299 558.385 16.9836C558.329 16.6469 558.085 16.3908 557.767 16.3322C556.728 16.1346 555.597 16.9028 554.686 17.5251L554.65 17.5469C549.97 21.2135 546.018 26.4975 542.563 33.7136C542.312 33.9036 541.345 34.1307 541.18 34.0208C541.521 33.3184 541.951 32.3741 542.166 31.3495C542.203 31.0566 542.238 30.7568 542.238 30.4641C542.238 29.8342 542.087 29.2416 541.522 28.832C540.861 28.5026 540.043 28.6564 539.492 28.905C537.022 29.9296 535.176 32.462 533.844 34.5475C533.128 35.8725 532.413 37.2916 532.216 38.9166C532.076 40.1898 532.36 41.0096 533.084 41.4195C533.828 41.7998 534.765 41.4045 535.133 41.2144C537.635 39.897 539.384 37.2552 540.762 34.84C540.816 34.8328 541.569 34.811 542.138 34.6644C542.146 34.6644 542.149 34.6644 542.161 34.672C542.129 34.7814 541.835 35.6599 541.835 35.6599C540.961 38.2211 540.557 39.9631 541.382 40.9949C542.561 42.4513 544.513 40.9439 546.101 38.9529C545.76 41.3386 546.996 41.7121 547.939 41.5293C549.022 41.2367 550.228 40.0801 550.788 39.4875C550.608 40.1826 550.657 41.427 551.642 41.5512C552.317 41.676 552.822 41.3088 553.407 40.994C555.504 39.8522 558.014 36.0475 558.665 34.9475H557.811C556.884 36.3478 555.706 38.1834 554.223 39.0547ZM535.401 38.7999C535.268 38.6022 535.224 38.3862 535.22 38.1526C535.194 36.7175 536.738 34.1477 537.828 32.7477H537.83C538.287 33.7477 539.321 34.3905 539.945 34.6614C539.17 36.3887 536.511 40.0879 535.401 38.7999ZM540.383 33.8892C540.309 33.9408 539.005 33.5014 538.753 32.2939C538.539 31.2543 539.255 30.442 539.947 30.0326C540.245 29.7982 540.693 29.718 541.021 29.8346C541.326 30.0399 541.409 30.4061 541.409 30.8006C541.409 31.0426 541.376 31.2912 541.348 31.518L541.342 31.5694C541.124 32.3807 540.801 33.1605 540.383 33.8892ZM550.842 38.3389C550.841 38.3389 550.595 38.5584 550.595 38.5584C550.243 38.873 549.881 39.2096 549.444 39.0412C549.323 38.9974 549.238 38.8365 549.218 38.7117C549.198 37.8115 549.603 36.9774 549.997 36.1651L550.097 35.9528C551.228 34.0647 552.543 31.8399 554.473 30.2959C554.798 30.0612 555.151 29.864 555.524 30.0178C555.61 30.0982 555.709 30.2373 555.709 30.3762C555.709 30.4203 555.67 30.5373 555.648 30.5738C555.109 31.4451 554.595 32.3597 554.096 33.2379C553.12 34.9724 552.108 36.7651 550.842 38.3389Z" fill="#E61A27"/>
<defs>
<clipPath id="clip0">
<rect width="80" height="30.4762" fill="white" transform="translate(726 14)"/>
</clipPath>
<clipPath id="clip1">
<rect width="80" height="58.6957" fill="white" transform="translate(1210)"/>
</clipPath>
<clipPath id="clip2">
<rect width="80" height="57.3248" fill="white" transform="translate(242 1)"/>
</clipPath>
<clipPath id="clip3">
<rect width="80" height="48.5079" fill="white" transform="translate(968 5)"/>
</clipPath>
</defs>
</svg>
